<?xml version="1.0" encoding="UTF-8" standalone="no"?><!DOCTYPE svg PUBLIC "-//W3C//DTD SVG 1.1//EN" "http://www.w3.org/Graphics/SVG/1.1/DTD/svg11.dtd"><svg width="100%" height="100%" viewBox="0 0 35 25" version="1.1" xmlns="http://www.w3.org/2000/svg" xmlns:xlink="http://www.w3.org/1999/xlink" xml:space="preserve" style="fill-rule:evenodd;clip-rule:evenodd;stroke-linejoin:round;stroke-miterlimit:1.41421;"><g><path d="M8.586,14.056c0,0 0.866,0.731 0.712,0.886c-0.195,0.196 -1.518,0.258 -2.378,0.415c-1.183,0.216 -2.84,0.83 -3.204,1.732c-0.21,0.52 -0.24,1.123 -0.24,1.123c0.154,0.305 3.587,0.879 3.587,0.879l0.046,0.126c0,0 -2.083,2.278 -2.129,2.458c-0.047,0.183 -0.378,2.204 -0.378,2.204l0.44,0.054l0.195,-2.154c0,0 2.289,-2.034 2.993,-2.872l-0.092,-0.635c0,0 -0.73,-0.193 -1.635,-0.31c-0.835,-0.109 -1.467,-0.167 -1.467,-0.167c0,0 1.193,-0.217 2.609,-0.847c1.441,-0.64 1.984,-0.725 2.527,-1.497c0.208,-0.295 0.566,-0.771 0.558,-1.035c-0.009,-0.264 -0.896,-0.894 -0.896,-0.894c0,0 -0.774,-0.065 -1.144,0.033c-0.369,0.098 -0.104,0.501 -0.104,0.501" style="fill:#231f20;fill-rule:nonzero;"/><path d="M21.732,11.769l-1.081,0.793l2.914,3.283l1.845,1.827c0,0 0.777,1.454 0.809,1.792c0.03,0.339 0.419,1.066 0.419,1.066l0.373,0.015l-0.921,-2.143l-0.144,-1.413l-2.728,-3.49l1.077,-1.225l-2.563,-0.505Z" style="fill:#231f20;fill-rule:nonzero;"/><path d="M19.828,8.778c0,0 2.213,1.822 3.325,2.164c1.114,0.341 6.171,1.55 6.171,1.55l1.078,2.026l1.646,0.957l0.279,0.967l1.682,-1.191c0,0 1.639,-5.022 0.702,-6.464c-0.937,-1.444 -2.787,-2.548 -2.787,-2.548c0,0 -11.476,-4.502 -11.657,-4.17c-0.265,0.489 -0.439,6.709 -0.439,6.709" style="fill:#231f20;fill-rule:nonzero;"/><path d="M31.275,15.931l-0.098,0.923l0.032,0.712l0.197,0.017l-0.067,-1.708l0.08,0.105l0.524,-0.642l-0.222,-0.135l-0.446,0.728Z" style="fill:#231f20;fill-rule:nonzero;"/><clipPath id="_clip1"><rect x="0" y="0" width="35" height="23.933"/></clipPath><g clip-path="url(#_clip1)"><path d="M29.018,6.298c-2.067,0.804 -2.195,6.185 -3.846,7.896c-1.798,1.862 -5.057,4.085 -9.907,5.108c-3.094,0.652 -5.455,-0.227 -9.38,-0.221c-3.785,0.006 -4.706,0.491 -4.706,0.491c0,0 -2.803,-4.831 0.234,-10.124c3.04,-5.298 7.869,-7.774 12.524,-8.855c5.036,-1.17 9.628,-0.597 13.731,1.609c4.103,2.206 4.385,4.199 4.385,4.199c0,0 -1.405,-0.737 -3.035,-0.103" style="fill:#f05a5a;fill-rule:nonzero;"/></g><g><clipPath id="_clip2"><path d="M13.937,0.592c-4.655,1.083 -9.484,3.558 -12.524,8.856c-1.064,1.856 -1.411,3.654 -1.413,5.207l0,0.027c0.004,2.865 1.179,4.889 1.179,4.889c0,0 0.921,-0.485 4.706,-0.49c1.436,-0.002 2.664,0.115 3.795,0.231c1.957,0.202 3.623,0.404 5.585,-0.01c4.85,-1.022 8.109,-3.246 9.907,-5.109c1.651,-1.709 1.78,-7.091 3.846,-7.895c1.63,-0.634 3.035,0.104 3.035,0.104c0,0 -0.283,-1.993 -4.385,-4.2c-2.711,-1.458 -5.636,-2.202 -8.761,-2.202c-1.604,0 -3.262,0.196 -4.97,0.592Z"/></clipPath><g clip-path="url(#_clip2)"><path d="M9.784,10.548c0.063,-1.329 1.657,-2.18 2.973,-2.243c1.315,-0.063 3.454,1.015 3.936,3.38c0.483,2.366 -0.325,3.969 -1.909,4.119c-1.584,0.152 -3.41,-0.36 -4.098,-1.618c-0.687,-1.258 -0.974,-2.129 -0.902,-3.638" style="fill:#00050a;fill-rule:nonzero;"/><path d="M11.744,6.622c-1.827,0.602 -4.687,-0.565 -4.937,-1.495c-0.25,-0.93 0.737,-3.274 2.86,-4.402c2.513,-1.335 5.654,-0.936 6.3,0.792c0.308,0.825 -0.722,3.951 -4.223,5.105" style="fill:#00050a;fill-rule:nonzero;"/><path d="M1.633,7.401c0.817,-0.176 2.652,1.083 2.567,2.461c-0.086,1.379 -1.131,4.828 -2.37,5.642c-1.24,0.814 -3.045,1.071 -3.225,0.321c-0.179,-0.751 1.263,-8.044 3.028,-8.424" style="fill:#00050a;fill-rule:nonzero;"/><path d="M18.837,1.398c-0.152,0.587 0.496,3.211 3.052,3.596c2.556,0.385 6.806,0.517 7.614,-0.21c0.81,-0.727 0.798,-1.068 0.225,-1.607c-0.5,-0.471 -4.613,-3.326 -6.325,-3.4c-1.712,-0.075 -2.03,0.937 -2.03,0.937c0,0 -2.223,-0.53 -2.536,0.684" style="fill:#00050a;fill-rule:nonzero;"/></g></g></g></svg>