<?xml version="1.0" encoding="UTF-8" standalone="no"?><!DOCTYPE svg PUBLIC "-//W3C//DTD SVG 1.1//EN" "http://www.w3.org/Graphics/SVG/1.1/DTD/svg11.dtd"><svg width="100%" height="100%" viewBox="0 0 250 215" version="1.1" xmlns="http://www.w3.org/2000/svg" xmlns:xlink="http://www.w3.org/1999/xlink" xml:space="preserve" style="fill-rule:evenodd;clip-rule:evenodd;stroke-linejoin:round;stroke-miterlimit:1.41421;"><path d="M125.69,211.642c0.129,0.013 0.162,0.012 0.288,0.045c0.282,0.075 0.537,0.241 0.722,0.468c0.092,0.113 0.166,0.24 0.218,0.377c0.141,0.365 0.12,0.781 -0.058,1.13c-0.066,0.13 -0.152,0.25 -0.255,0.353c-0.103,0.103 -0.222,0.19 -0.352,0.257c-0.173,0.088 -0.365,0.14 -0.559,0.15c-0.049,0.003 -0.097,0 -0.146,0l0,0c-0.048,-0.005 -0.097,-0.007 -0.145,-0.015c-0.192,-0.03 -0.377,-0.101 -0.541,-0.206c-0.122,-0.08 -0.232,-0.178 -0.324,-0.291c-0.092,-0.114 -0.165,-0.241 -0.218,-0.377c-0.141,-0.366 -0.119,-0.782 0.058,-1.131c0.066,-0.13 0.152,-0.25 0.255,-0.353c0.172,-0.172 0.389,-0.298 0.624,-0.361c0.125,-0.034 0.159,-0.032 0.287,-0.046c0.049,0 0.097,-0.003 0.146,0ZM135.59,211.447c0.105,0.009 0.206,0.021 0.308,0.049c0.235,0.064 0.451,0.191 0.621,0.365c0.122,0.123 0.22,0.27 0.289,0.43c0.054,0.127 0.089,0.263 0.104,0.401c0.055,0.527 -0.203,1.052 -0.653,1.33c-0.118,0.073 -0.247,0.128 -0.382,0.163c-0.089,0.023 -0.113,0.024 -0.204,0.037l0,0c-0.093,0.006 -0.116,0.01 -0.208,0.006c-0.139,-0.006 -0.277,-0.033 -0.407,-0.08c-0.164,-0.059 -0.316,-0.148 -0.447,-0.262c-0.104,-0.092 -0.195,-0.199 -0.268,-0.317c-0.073,-0.118 -0.128,-0.247 -0.163,-0.382c-0.115,-0.441 -0.001,-0.922 0.299,-1.266c0.16,-0.183 0.368,-0.322 0.599,-0.401c0.1,-0.034 0.2,-0.052 0.304,-0.067l0,0l0.104,-0.007c0.035,0 0.07,0.001 0.104,0.001ZM120.347,211.166l0.144,0.026c0.124,0.037 0.157,0.041 0.274,0.097c0.22,0.105 0.41,0.267 0.548,0.468c0.083,0.12 0.146,0.253 0.188,0.393c0.111,0.375 0.057,0.789 -0.147,1.123c-0.076,0.124 -0.172,0.236 -0.283,0.331c-0.111,0.095 -0.236,0.172 -0.371,0.228c-0.18,0.074 -0.375,0.11 -0.569,0.105c-0.049,-0.001 -0.097,-0.007 -0.145,-0.011l-0.001,0c-0.127,-0.023 -0.16,-0.024 -0.283,-0.068c-0.229,-0.081 -0.436,-0.222 -0.594,-0.407c-0.094,-0.111 -0.172,-0.237 -0.227,-0.372c-0.056,-0.134 -0.091,-0.278 -0.102,-0.423c-0.012,-0.145 0,-0.292 0.034,-0.434c0.091,-0.381 0.344,-0.712 0.688,-0.899c0.171,-0.093 0.361,-0.149 0.555,-0.165c0.049,-0.004 0.097,-0.002 0.146,-0.004c0.048,0.004 0.097,0.008 0.145,0.012ZM141.647,210.51c0.092,0.012 0.115,0.012 0.205,0.035c0.135,0.033 0.265,0.086 0.384,0.158c0.119,0.071 0.227,0.16 0.32,0.264c0.093,0.103 0.17,0.22 0.228,0.346c0.222,0.481 0.146,1.061 -0.19,1.469c-0.155,0.188 -0.359,0.333 -0.587,0.418c-0.087,0.033 -0.11,0.036 -0.2,0.058l0,0c-0.091,0.016 -0.114,0.023 -0.206,0.028c-0.139,0.008 -0.279,-0.005 -0.413,-0.038c-0.169,-0.041 -0.33,-0.115 -0.471,-0.215c-0.114,-0.08 -0.215,-0.177 -0.3,-0.287c-0.278,-0.361 -0.362,-0.848 -0.22,-1.282c0.043,-0.132 0.106,-0.257 0.186,-0.371c0.14,-0.199 0.333,-0.359 0.554,-0.461c0.096,-0.044 0.194,-0.072 0.296,-0.098l0,0c0.034,-0.006 0.068,-0.013 0.102,-0.017c0.092,-0.013 0.116,-0.011 0.208,-0.013c0.035,0.002 0.069,0.004 0.104,0.006ZM114.925,210.237l0.144,0.024c0.046,0.012 0.094,0.023 0.14,0.038c0.185,0.061 0.356,0.161 0.5,0.292c0.107,0.099 0.2,0.214 0.272,0.34c0.072,0.127 0.124,0.265 0.153,0.408c0.08,0.383 -0.009,0.791 -0.241,1.106c-0.087,0.118 -0.192,0.221 -0.31,0.306c-0.238,0.171 -0.528,0.263 -0.82,0.261c-0.13,0 -0.162,-0.011 -0.289,-0.032l0,0c-0.047,-0.013 -0.095,-0.023 -0.141,-0.038c-0.184,-0.061 -0.356,-0.162 -0.499,-0.293c-0.108,-0.098 -0.2,-0.213 -0.273,-0.34c-0.243,-0.428 -0.24,-0.966 0.009,-1.392c0.073,-0.125 0.167,-0.24 0.276,-0.336c0.181,-0.162 0.405,-0.275 0.644,-0.324c0.127,-0.026 0.16,-0.023 0.289,-0.029c0.049,0.003 0.097,0.006 0.146,0.009ZM147.454,208.919c0.092,0.008 0.115,0.008 0.206,0.027c0.136,0.028 0.267,0.077 0.389,0.145c0.121,0.067 0.232,0.153 0.329,0.253c0.096,0.1 0.177,0.214 0.239,0.338c0.222,0.44 0.191,0.978 -0.079,1.39c-0.134,0.203 -0.32,0.37 -0.538,0.48c-0.083,0.041 -0.105,0.047 -0.192,0.079l0,0c-0.101,0.029 -0.2,0.054 -0.305,0.063c-0.243,0.023 -0.49,-0.019 -0.711,-0.121c-0.157,-0.073 -0.301,-0.175 -0.421,-0.3c-0.097,-0.1 -0.178,-0.215 -0.24,-0.339c-0.063,-0.124 -0.106,-0.257 -0.129,-0.394c-0.076,-0.45 0.078,-0.919 0.407,-1.235c0.101,-0.096 0.215,-0.177 0.339,-0.24c0.083,-0.042 0.106,-0.047 0.192,-0.079l0,0c0.089,-0.026 0.111,-0.035 0.202,-0.05c0.092,-0.016 0.115,-0.014 0.208,-0.019c0.034,0 0.069,0.001 0.104,0.002ZM109.613,208.834c0.144,0.021 0.144,0.021 0.285,0.058l0,0c0.121,0.045 0.154,0.052 0.267,0.116c0.254,0.143 0.46,0.368 0.581,0.634c0.061,0.132 0.1,0.274 0.117,0.419c0.016,0.145 0.01,0.293 -0.019,0.435c-0.078,0.384 -0.32,0.724 -0.657,0.922c-0.126,0.075 -0.263,0.129 -0.405,0.16c-0.19,0.042 -0.389,0.044 -0.579,0.005c-0.048,-0.009 -0.094,-0.024 -0.141,-0.036l-0.001,0c-0.045,-0.017 -0.091,-0.032 -0.136,-0.051c-0.178,-0.078 -0.34,-0.193 -0.471,-0.336c-0.333,-0.363 -0.45,-0.889 -0.302,-1.359c0.044,-0.139 0.11,-0.271 0.194,-0.39c0.085,-0.118 0.188,-0.224 0.305,-0.31c0.157,-0.116 0.337,-0.199 0.527,-0.241c0.127,-0.028 0.16,-0.025 0.289,-0.033c0.049,0.002 0.097,0.005 0.146,0.007ZM104.474,206.932c0.048,0.006 0.096,0.011 0.144,0.02c0.127,0.026 0.157,0.042 0.278,0.087l0,0c0.116,0.057 0.148,0.067 0.254,0.142c0.239,0.168 0.421,0.412 0.515,0.689c0.047,0.138 0.072,0.283 0.074,0.429c0.006,0.391 -0.159,0.775 -0.446,1.04c-0.107,0.1 -0.23,0.182 -0.362,0.243c-0.133,0.061 -0.275,0.101 -0.419,0.118c-0.194,0.023 -0.391,0.005 -0.577,-0.053c-0.046,-0.014 -0.091,-0.033 -0.136,-0.05l-0.001,0c-0.043,-0.021 -0.088,-0.041 -0.13,-0.064c-0.17,-0.095 -0.319,-0.226 -0.436,-0.382c-0.264,-0.354 -0.345,-0.823 -0.214,-1.245c0.043,-0.14 0.108,-0.272 0.192,-0.391c0.084,-0.119 0.187,-0.225 0.304,-0.312c0.155,-0.117 0.336,-0.2 0.525,-0.243c0.127,-0.028 0.16,-0.026 0.289,-0.034c0.049,0.002 0.097,0.004 0.146,0.006ZM153.163,206.716c0.092,0.013 0.115,0.014 0.205,0.037c0.202,0.051 0.392,0.148 0.551,0.282c0.107,0.09 0.2,0.195 0.275,0.311c0.247,0.384 0.29,0.876 0.113,1.296c-0.054,0.128 -0.127,0.248 -0.216,0.354c-0.09,0.107 -0.195,0.2 -0.311,0.275c-0.078,0.05 -0.1,0.058 -0.183,0.099l0,0c-0.086,0.035 -0.106,0.047 -0.196,0.072c-0.133,0.037 -0.273,0.055 -0.411,0.051c-0.174,-0.004 -0.346,-0.041 -0.506,-0.109c-0.128,-0.054 -0.248,-0.127 -0.354,-0.216c-0.107,-0.089 -0.2,-0.195 -0.275,-0.311c-0.247,-0.384 -0.29,-0.876 -0.113,-1.296c0.094,-0.224 0.248,-0.422 0.442,-0.569c0.084,-0.064 0.174,-0.112 0.268,-0.159l0,0c0.098,-0.04 0.193,-0.075 0.297,-0.096c0.103,-0.021 0.205,-0.026 0.31,-0.027c0.035,0.002 0.07,0.004 0.104,0.006ZM99.556,204.522c0.128,0.018 0.162,0.018 0.286,0.056c0.124,0.038 0.152,0.057 0.268,0.114l0,0c0.041,0.026 0.083,0.05 0.123,0.078c0.159,0.111 0.294,0.257 0.394,0.424c0.075,0.125 0.13,0.262 0.163,0.404c0.087,0.381 0.007,0.791 -0.218,1.111c-0.084,0.119 -0.187,0.225 -0.303,0.313c-0.117,0.087 -0.247,0.156 -0.385,0.203c-0.277,0.095 -0.581,0.1 -0.86,0.014c-0.124,-0.038 -0.152,-0.057 -0.268,-0.114l0,0c-0.11,-0.069 -0.14,-0.082 -0.238,-0.168c-0.147,-0.127 -0.266,-0.286 -0.348,-0.462c-0.061,-0.133 -0.102,-0.275 -0.119,-0.419c-0.018,-0.145 -0.012,-0.292 0.016,-0.436c0.075,-0.384 0.315,-0.725 0.651,-0.926c0.167,-0.1 0.354,-0.164 0.547,-0.187c0.049,-0.006 0.097,-0.007 0.146,-0.01c0.048,0.001 0.097,0.003 0.145,0.005ZM94.914,201.619c0.048,0.006 0.097,0.011 0.145,0.02c0.095,0.018 0.188,0.047 0.278,0.085c0.119,0.051 0.145,0.073 0.254,0.141l0,0c0.039,0.03 0.079,0.058 0.115,0.09c0.147,0.128 0.266,0.286 0.349,0.462c0.061,0.132 0.102,0.274 0.12,0.419c0.017,0.145 0.012,0.292 -0.016,0.435c-0.074,0.384 -0.314,0.726 -0.649,0.928c-0.125,0.075 -0.262,0.13 -0.404,0.163c-0.285,0.066 -0.588,0.039 -0.857,-0.075c-0.119,-0.051 -0.145,-0.073 -0.254,-0.141l-0.001,0c-0.038,-0.03 -0.078,-0.058 -0.114,-0.09c-0.147,-0.128 -0.267,-0.286 -0.349,-0.462c-0.061,-0.133 -0.102,-0.274 -0.12,-0.419c-0.047,-0.389 0.074,-0.787 0.331,-1.083c0.096,-0.11 0.209,-0.205 0.334,-0.28c0.167,-0.1 0.354,-0.165 0.547,-0.188c0.049,-0.006 0.097,-0.007 0.146,-0.01c0.048,0.001 0.097,0.003 0.145,0.005ZM162.854,201.219c0.079,0.01 0.099,0.01 0.177,0.028c0.174,0.04 0.34,0.113 0.486,0.215c0.147,0.102 0.273,0.233 0.371,0.382c0.097,0.15 0.165,0.318 0.2,0.494c0.028,0.146 0.033,0.296 0.014,0.444c-0.019,0.147 -0.062,0.292 -0.126,0.426c-0.182,0.379 -0.535,0.659 -0.944,0.753c-0.116,0.027 -0.236,0.038 -0.355,0.035c-0.178,-0.006 -0.355,-0.046 -0.519,-0.119c-0.163,-0.072 -0.312,-0.176 -0.436,-0.304c-0.104,-0.107 -0.19,-0.23 -0.255,-0.364c-0.064,-0.134 -0.107,-0.279 -0.126,-0.426c-0.015,-0.118 -0.015,-0.238 0,-0.356c0.053,-0.417 0.299,-0.795 0.658,-1.013c0.153,-0.092 0.323,-0.155 0.5,-0.184c0.078,-0.013 0.098,-0.012 0.177,-0.017c0.089,0 0.089,0 0.178,0.006ZM90.59,198.256c0.048,0.007 0.097,0.011 0.145,0.02c0.143,0.028 0.282,0.077 0.409,0.148c0.114,0.062 0.137,0.087 0.239,0.166l0.001,0c0.093,0.089 0.12,0.109 0.199,0.212c0.176,0.233 0.276,0.52 0.282,0.813c0.009,0.391 -0.153,0.775 -0.438,1.043c-0.107,0.1 -0.229,0.183 -0.361,0.245c-0.132,0.062 -0.273,0.103 -0.418,0.122c-0.145,0.018 -0.292,0.013 -0.435,-0.014c-0.191,-0.037 -0.374,-0.113 -0.534,-0.225c-0.04,-0.027 -0.077,-0.059 -0.115,-0.089l0,0c-0.035,-0.034 -0.072,-0.065 -0.105,-0.101c-0.133,-0.142 -0.236,-0.311 -0.3,-0.495c-0.162,-0.465 -0.061,-0.994 0.261,-1.367c0.095,-0.111 0.208,-0.206 0.333,-0.281c0.166,-0.101 0.353,-0.166 0.546,-0.191c0.049,-0.006 0.097,-0.007 0.146,-0.01c0.048,0.001 0.097,0.003 0.145,0.004ZM167.529,197.556c0.079,0.007 0.099,0.007 0.177,0.021c0.176,0.033 0.345,0.101 0.495,0.197c0.15,0.097 0.281,0.222 0.384,0.368c0.103,0.146 0.178,0.311 0.219,0.485c0.034,0.145 0.044,0.295 0.031,0.444c-0.014,0.148 -0.051,0.294 -0.11,0.43c-0.168,0.386 -0.509,0.68 -0.916,0.789c-0.114,0.03 -0.233,0.047 -0.352,0.047c-0.179,0.001 -0.357,-0.032 -0.523,-0.098c-0.166,-0.066 -0.319,-0.165 -0.448,-0.288c-0.108,-0.103 -0.198,-0.223 -0.268,-0.355c-0.07,-0.131 -0.118,-0.274 -0.142,-0.42c-0.025,-0.147 -0.026,-0.298 -0.003,-0.445c0.06,-0.385 0.284,-0.734 0.609,-0.948c0.149,-0.098 0.317,-0.167 0.492,-0.202c0.078,-0.016 0.098,-0.016 0.177,-0.024c0.089,-0.004 0.089,-0.004 0.178,-0.001ZM86.604,194.485c0.128,0.016 0.161,0.015 0.286,0.051c0.187,0.054 0.362,0.147 0.511,0.272c0.037,0.032 0.071,0.067 0.106,0.1l0,0c0.085,0.098 0.111,0.119 0.179,0.23c0.155,0.248 0.228,0.543 0.208,0.835c-0.011,0.145 -0.044,0.289 -0.099,0.424c-0.147,0.363 -0.447,0.652 -0.815,0.786c-0.137,0.049 -0.282,0.077 -0.428,0.082c-0.146,0.005 -0.292,-0.013 -0.432,-0.053c-0.187,-0.054 -0.362,-0.147 -0.511,-0.273c-0.037,-0.031 -0.071,-0.066 -0.106,-0.099l0,0c-0.032,-0.037 -0.066,-0.072 -0.096,-0.11c-0.119,-0.154 -0.206,-0.332 -0.253,-0.521c-0.035,-0.141 -0.048,-0.288 -0.038,-0.434c0.032,-0.44 0.278,-0.849 0.653,-1.082c0.165,-0.103 0.351,-0.171 0.544,-0.198c0.048,-0.006 0.097,-0.008 0.145,-0.012c0.048,0.001 0.097,0.001 0.146,0.002ZM59.09,193.424c0.124,0.013 0.157,0.011 0.278,0.043c0.274,0.07 0.523,0.226 0.708,0.44c0.092,0.107 0.167,0.228 0.223,0.358c0.056,0.129 0.092,0.268 0.106,0.408c0.043,0.425 -0.116,0.855 -0.425,1.15c-0.103,0.097 -0.22,0.179 -0.346,0.241c-0.169,0.083 -0.355,0.131 -0.543,0.141c-0.047,0.002 -0.094,0 -0.141,0l0,0c-0.047,-0.005 -0.094,-0.007 -0.14,-0.014c-0.186,-0.029 -0.366,-0.095 -0.526,-0.195c-0.12,-0.074 -0.228,-0.167 -0.32,-0.274c-0.092,-0.107 -0.167,-0.228 -0.223,-0.358c-0.169,-0.392 -0.146,-0.851 0.061,-1.224c0.069,-0.124 0.156,-0.237 0.258,-0.334c0.171,-0.162 0.382,-0.28 0.61,-0.339c0.122,-0.031 0.154,-0.03 0.279,-0.043c0.047,0 0.094,-0.002 0.141,0ZM171.859,193.411c0.079,0.008 0.099,0.008 0.176,0.025c0.175,0.036 0.343,0.106 0.491,0.205c0.149,0.099 0.278,0.227 0.378,0.374c0.101,0.148 0.172,0.315 0.21,0.489c0.032,0.146 0.04,0.296 0.024,0.444c-0.013,0.119 -0.041,0.235 -0.084,0.346c-0.149,0.393 -0.476,0.703 -0.877,0.831c-0.142,0.045 -0.291,0.067 -0.439,0.066c-0.179,-0.002 -0.357,-0.039 -0.521,-0.108c-0.165,-0.069 -0.316,-0.17 -0.443,-0.295c-0.106,-0.105 -0.194,-0.227 -0.262,-0.36c-0.067,-0.132 -0.113,-0.276 -0.135,-0.423c-0.022,-0.147 -0.02,-0.298 0.005,-0.444c0.067,-0.384 0.297,-0.729 0.626,-0.938c0.15,-0.095 0.32,-0.161 0.495,-0.194c0.078,-0.014 0.098,-0.014 0.177,-0.02c0.09,-0.002 0.09,-0.002 0.179,0.002ZM68.214,193.322c0.073,0.005 0.092,0.005 0.164,0.016c0.164,0.025 0.322,0.08 0.466,0.16c0.168,0.094 0.316,0.224 0.432,0.377c0.1,0.132 0.175,0.282 0.222,0.44c0.048,0.158 0.066,0.324 0.056,0.489c-0.009,0.137 -0.039,0.273 -0.087,0.402c-0.049,0.129 -0.117,0.25 -0.201,0.359c-0.254,0.329 -0.653,0.53 -1.068,0.54c-0.416,0.01 -0.823,-0.172 -1.093,-0.489c-0.089,-0.105 -0.163,-0.223 -0.218,-0.349c-0.054,-0.126 -0.09,-0.261 -0.106,-0.397c-0.018,-0.164 -0.007,-0.331 0.033,-0.492c0.039,-0.16 0.108,-0.313 0.201,-0.449c0.108,-0.159 0.25,-0.295 0.414,-0.397c0.14,-0.087 0.295,-0.149 0.457,-0.182c0.072,-0.015 0.09,-0.016 0.163,-0.024c0.073,-0.006 0.092,-0.004 0.165,-0.004ZM53.847,192.973l0.139,0.025c0.045,0.012 0.091,0.023 0.136,0.038c0.178,0.06 0.344,0.157 0.484,0.282c0.105,0.094 0.196,0.204 0.268,0.326c0.218,0.367 0.255,0.824 0.098,1.222c-0.052,0.131 -0.124,0.254 -0.212,0.364c-0.089,0.11 -0.194,0.206 -0.312,0.284c-0.196,0.13 -0.424,0.21 -0.659,0.229c-0.125,0.01 -0.157,0.003 -0.282,-0.006l0,0c-0.123,-0.022 -0.156,-0.023 -0.275,-0.063c-0.223,-0.075 -0.425,-0.207 -0.584,-0.381c-0.095,-0.105 -0.174,-0.223 -0.233,-0.351c-0.18,-0.388 -0.171,-0.847 0.026,-1.226c0.064,-0.126 0.148,-0.241 0.248,-0.341c0.099,-0.1 0.214,-0.185 0.338,-0.251c0.167,-0.088 0.351,-0.141 0.538,-0.157c0.047,-0.003 0.094,-0.002 0.141,-0.004c0.047,0.004 0.094,0.007 0.141,0.01ZM73.433,192.708c0.073,0.008 0.091,0.008 0.163,0.023c0.162,0.032 0.318,0.094 0.458,0.181c0.164,0.101 0.306,0.236 0.415,0.395c0.094,0.136 0.163,0.289 0.203,0.449c0.041,0.16 0.052,0.327 0.034,0.491c-0.015,0.137 -0.05,0.271 -0.105,0.398c-0.054,0.126 -0.127,0.244 -0.216,0.349c-0.268,0.318 -0.675,0.502 -1.091,0.493c-0.137,-0.002 -0.274,-0.026 -0.405,-0.068c-0.395,-0.13 -0.718,-0.438 -0.867,-0.826c-0.049,-0.129 -0.079,-0.264 -0.088,-0.402c-0.012,-0.164 0.006,-0.331 0.053,-0.489c0.047,-0.159 0.122,-0.308 0.221,-0.44c0.115,-0.155 0.263,-0.284 0.431,-0.379c0.146,-0.082 0.301,-0.131 0.465,-0.162c0.054,-0.01 0.109,-0.012 0.164,-0.016c0.083,-0.001 0.082,-0.001 0.165,0.003ZM48.518,192.115l0.14,0.02c0.121,0.031 0.153,0.035 0.269,0.084c0.261,0.11 0.484,0.301 0.635,0.54c0.227,0.362 0.275,0.818 0.129,1.219c-0.049,0.133 -0.117,0.258 -0.203,0.37c-0.086,0.112 -0.189,0.21 -0.305,0.291c-0.115,0.081 -0.243,0.145 -0.377,0.188c-0.18,0.057 -0.37,0.077 -0.558,0.059c-0.047,-0.005 -0.093,-0.014 -0.139,-0.021l0,0c-0.046,-0.012 -0.092,-0.021 -0.137,-0.035c-0.18,-0.056 -0.348,-0.148 -0.491,-0.27c-0.4,-0.341 -0.576,-0.894 -0.447,-1.403c0.035,-0.137 0.091,-0.268 0.165,-0.388c0.074,-0.12 0.167,-0.229 0.273,-0.321c0.178,-0.154 0.395,-0.262 0.625,-0.31c0.123,-0.026 0.156,-0.023 0.281,-0.03c0.046,0.002 0.093,0.004 0.14,0.007ZM78.514,191.707c0.073,0.007 0.091,0.008 0.164,0.021c0.162,0.031 0.318,0.09 0.46,0.175c0.165,0.1 0.309,0.234 0.42,0.391c0.095,0.135 0.166,0.287 0.208,0.446c0.042,0.16 0.055,0.327 0.039,0.491c-0.013,0.137 -0.047,0.272 -0.1,0.399c-0.052,0.127 -0.124,0.246 -0.211,0.352c-0.265,0.321 -0.67,0.509 -1.086,0.506c-0.192,-0.002 -0.384,-0.044 -0.56,-0.123c-0.15,-0.068 -0.288,-0.162 -0.406,-0.278c-0.098,-0.097 -0.181,-0.208 -0.247,-0.329c-0.198,-0.366 -0.22,-0.811 -0.061,-1.196c0.053,-0.127 0.125,-0.246 0.212,-0.352c0.105,-0.127 0.233,-0.236 0.376,-0.318c0.143,-0.083 0.3,-0.14 0.463,-0.168c0.072,-0.012 0.091,-0.012 0.164,-0.018c0.082,-0.002 0.082,-0.002 0.165,0.001ZM43.286,190.838c0.14,0.019 0.14,0.019 0.277,0.051l0,0c0.118,0.041 0.15,0.047 0.261,0.106c0.25,0.132 0.457,0.34 0.587,0.592c0.065,0.125 0.111,0.26 0.135,0.399c0.024,0.139 0.027,0.282 0.009,0.421c-0.056,0.424 -0.31,0.806 -0.679,1.021c-0.122,0.072 -0.254,0.124 -0.392,0.155c-0.184,0.042 -0.375,0.046 -0.56,0.012c-0.047,-0.008 -0.092,-0.021 -0.138,-0.032l0,0c-0.044,-0.016 -0.089,-0.029 -0.133,-0.046c-0.174,-0.071 -0.334,-0.177 -0.467,-0.311c-0.335,-0.338 -0.476,-0.837 -0.366,-1.3c0.032,-0.137 0.086,-0.27 0.158,-0.391c0.072,-0.121 0.163,-0.231 0.268,-0.326c0.175,-0.157 0.39,-0.268 0.619,-0.32c0.123,-0.028 0.155,-0.026 0.28,-0.035c0.047,0.002 0.094,0.003 0.141,0.004ZM38.183,189.129c0.046,0.006 0.094,0.009 0.14,0.016c0.124,0.021 0.153,0.036 0.271,0.075l0.001,0c0.042,0.019 0.086,0.036 0.128,0.058c0.168,0.085 0.318,0.205 0.438,0.349c0.091,0.109 0.164,0.231 0.218,0.361c0.163,0.395 0.133,0.853 -0.08,1.224c-0.07,0.122 -0.159,0.233 -0.263,0.329c-0.104,0.096 -0.222,0.176 -0.35,0.236c-0.255,0.121 -0.546,0.161 -0.825,0.114c-0.124,-0.021 -0.153,-0.036 -0.272,-0.075l0,0c-0.043,-0.019 -0.087,-0.036 -0.129,-0.057c-0.167,-0.086 -0.317,-0.205 -0.438,-0.35c-0.09,-0.108 -0.164,-0.23 -0.217,-0.361c-0.182,-0.44 -0.122,-0.955 0.156,-1.342c0.082,-0.114 0.182,-0.216 0.295,-0.301c0.151,-0.113 0.324,-0.195 0.507,-0.239c0.122,-0.03 0.154,-0.028 0.279,-0.039c0.047,0.001 0.094,0.001 0.141,0.002ZM175.699,188.813c0.079,0.01 0.099,0.011 0.176,0.028c0.175,0.039 0.341,0.112 0.488,0.213c0.147,0.102 0.274,0.232 0.372,0.381c0.098,0.149 0.167,0.317 0.202,0.493c0.029,0.145 0.034,0.296 0.016,0.444c-0.052,0.417 -0.296,0.795 -0.655,1.015c-0.101,0.062 -0.211,0.111 -0.325,0.145c-0.142,0.043 -0.292,0.063 -0.44,0.059c-0.179,-0.005 -0.356,-0.045 -0.52,-0.116c-0.163,-0.072 -0.313,-0.175 -0.437,-0.303c-0.104,-0.106 -0.191,-0.229 -0.256,-0.363c-0.065,-0.134 -0.109,-0.278 -0.128,-0.426c-0.016,-0.118 -0.017,-0.237 -0.002,-0.356c0.052,-0.417 0.296,-0.795 0.655,-1.015c0.152,-0.093 0.322,-0.156 0.498,-0.186c0.079,-0.013 0.099,-0.012 0.178,-0.018c0.089,0 0.089,0 0.178,0.005ZM33.25,186.984c0.124,0.013 0.157,0.011 0.278,0.043c0.122,0.031 0.149,0.048 0.264,0.098l0,0c0.041,0.023 0.084,0.044 0.124,0.069c0.159,0.099 0.298,0.232 0.405,0.386c0.081,0.116 0.143,0.244 0.185,0.379c0.042,0.135 0.064,0.276 0.063,0.417c0,0.427 -0.203,0.839 -0.541,1.1c-0.112,0.086 -0.237,0.155 -0.369,0.204c-0.266,0.098 -0.559,0.112 -0.833,0.041c-0.121,-0.032 -0.149,-0.049 -0.264,-0.098l0,0c-0.109,-0.061 -0.139,-0.073 -0.239,-0.15c-0.148,-0.115 -0.273,-0.261 -0.364,-0.426c-0.068,-0.123 -0.118,-0.257 -0.146,-0.395c-0.085,-0.419 0.031,-0.863 0.309,-1.187c0.093,-0.106 0.201,-0.199 0.321,-0.274c0.16,-0.099 0.339,-0.165 0.526,-0.193c0.046,-0.008 0.093,-0.01 0.14,-0.015c0.047,0.001 0.094,0.001 0.141,0.001ZM28.666,184.426c0.123,0.023 0.155,0.025 0.273,0.067c0.119,0.042 0.144,0.062 0.255,0.121l0,0c0.039,0.027 0.079,0.051 0.116,0.079c0.151,0.114 0.277,0.258 0.37,0.421c0.07,0.123 0.121,0.256 0.151,0.394c0.091,0.417 -0.019,0.863 -0.293,1.19c-0.091,0.109 -0.198,0.203 -0.317,0.279c-0.119,0.076 -0.249,0.134 -0.385,0.171c-0.273,0.074 -0.567,0.062 -0.833,-0.033c-0.118,-0.042 -0.144,-0.062 -0.254,-0.121l0,0c-0.104,-0.07 -0.133,-0.084 -0.225,-0.17c-0.138,-0.128 -0.249,-0.284 -0.326,-0.456c-0.057,-0.129 -0.094,-0.267 -0.11,-0.407c-0.048,-0.424 0.106,-0.857 0.412,-1.155c0.102,-0.098 0.218,-0.181 0.344,-0.244c0.168,-0.085 0.353,-0.136 0.54,-0.147c0.047,-0.003 0.094,-0.001 0.141,-0.002c0.047,0.004 0.094,0.009 0.141,0.013ZM184.07,183.752c0.107,0.015 0.134,0.015 0.239,0.044c0.234,0.064 0.45,0.191 0.621,0.364c0.346,0.351 0.482,0.872 0.352,1.347c-0.033,0.117 -0.08,0.23 -0.142,0.335c-0.082,0.14 -0.188,0.265 -0.313,0.368c-0.125,0.104 -0.268,0.185 -0.42,0.239c-0.102,0.036 -0.13,0.039 -0.235,0.061l0,0c-0.107,0.014 -0.134,0.021 -0.242,0.02c-0.284,-0.002 -0.565,-0.093 -0.797,-0.257c-0.132,-0.094 -0.247,-0.211 -0.339,-0.344c-0.092,-0.134 -0.161,-0.283 -0.202,-0.44c-0.135,-0.518 0.047,-1.082 0.46,-1.423c0.125,-0.104 0.267,-0.185 0.42,-0.239c0.102,-0.037 0.129,-0.039 0.235,-0.061l0,0c0.121,-0.016 0.12,-0.016 0.242,-0.02c0.04,0.002 0.081,0.004 0.121,0.006ZM189.575,182.557c0.107,0.014 0.135,0.014 0.239,0.042c0.196,0.052 0.38,0.148 0.535,0.278c0.124,0.104 0.23,0.23 0.311,0.37c0.061,0.105 0.108,0.218 0.139,0.335c0.128,0.476 -0.011,0.997 -0.359,1.345c-0.114,0.115 -0.249,0.209 -0.396,0.278c-0.098,0.046 -0.125,0.051 -0.228,0.083l0,0c-0.105,0.024 -0.131,0.033 -0.239,0.042c-0.283,0.025 -0.571,-0.038 -0.817,-0.18c-0.464,-0.267 -0.738,-0.793 -0.692,-1.326c0.014,-0.162 0.057,-0.32 0.125,-0.467c0.068,-0.147 0.162,-0.282 0.277,-0.397c0.114,-0.114 0.249,-0.209 0.396,-0.277c0.098,-0.046 0.125,-0.051 0.228,-0.083l0,0c0.105,-0.024 0.131,-0.033 0.239,-0.043c0.04,-0.003 0.08,-0.003 0.121,-0.005c0.04,0.002 0.081,0.003 0.121,0.005ZM24.175,181.451c0.124,0.022 0.156,0.023 0.275,0.062c0.089,0.03 0.175,0.069 0.257,0.117c0.04,0.023 0.079,0.051 0.118,0.077l0,0c0.097,0.078 0.125,0.095 0.21,0.187c0.191,0.209 0.315,0.475 0.352,0.756c0.019,0.14 0.016,0.282 -0.008,0.421c-0.073,0.421 -0.343,0.793 -0.72,0.992c-0.125,0.066 -0.26,0.113 -0.398,0.139c-0.139,0.026 -0.282,0.03 -0.422,0.013c-0.187,-0.023 -0.368,-0.084 -0.531,-0.178c-0.041,-0.024 -0.079,-0.052 -0.118,-0.077l0,0c-0.037,-0.03 -0.075,-0.057 -0.11,-0.089c-0.14,-0.125 -0.255,-0.279 -0.334,-0.45c-0.222,-0.476 -0.152,-1.052 0.178,-1.461c0.088,-0.11 0.193,-0.207 0.311,-0.285c0.156,-0.104 0.334,-0.176 0.519,-0.211c0.124,-0.022 0.156,-0.019 0.281,-0.023c0.047,0.004 0.094,0.007 0.14,0.01ZM194.921,180.818c0.108,0.012 0.135,0.011 0.24,0.038c0.197,0.049 0.382,0.141 0.539,0.269c0.095,0.076 0.179,0.165 0.25,0.263c0.265,0.365 0.337,0.846 0.19,1.272c-0.053,0.153 -0.133,0.297 -0.235,0.423c-0.102,0.125 -0.226,0.233 -0.365,0.317c-0.092,0.055 -0.119,0.063 -0.218,0.106l0,0c-0.102,0.034 -0.127,0.046 -0.233,0.067c-0.159,0.031 -0.323,0.033 -0.483,0.008c-0.529,-0.084 -0.973,-0.477 -1.12,-0.991c-0.045,-0.156 -0.062,-0.32 -0.051,-0.481c0.012,-0.162 0.051,-0.321 0.117,-0.469c0.116,-0.26 0.312,-0.481 0.555,-0.627c0.093,-0.056 0.119,-0.063 0.218,-0.106l0,0c0.103,-0.035 0.128,-0.047 0.234,-0.067c0.106,-0.021 0.133,-0.019 0.241,-0.026c0.041,0.001 0.081,0.003 0.121,0.004ZM200.05,178.521c0.107,0.011 0.135,0.01 0.24,0.034c0.158,0.036 0.309,0.1 0.445,0.188c0.45,0.291 0.697,0.83 0.623,1.36c-0.022,0.161 -0.073,0.317 -0.149,0.46c-0.095,0.179 -0.229,0.337 -0.39,0.459c-0.087,0.065 -0.112,0.076 -0.206,0.129l0,0c-0.098,0.045 -0.121,0.059 -0.225,0.091c-0.155,0.048 -0.318,0.068 -0.48,0.06c-0.161,-0.008 -0.322,-0.045 -0.471,-0.108c-0.493,-0.208 -0.829,-0.696 -0.849,-1.231c-0.006,-0.162 0.017,-0.325 0.067,-0.479c0.087,-0.271 0.258,-0.511 0.485,-0.683c0.086,-0.065 0.111,-0.075 0.205,-0.129l0,0c0.098,-0.044 0.122,-0.059 0.225,-0.091c0.118,-0.036 0.236,-0.051 0.358,-0.06c0.041,0 0.081,0 0.122,0ZM205.019,175.69c0.107,0.017 0.135,0.018 0.238,0.05c0.155,0.046 0.302,0.12 0.432,0.217c0.429,0.321 0.638,0.875 0.529,1.399c-0.024,0.119 -0.065,0.235 -0.12,0.343c-0.072,0.145 -0.171,0.276 -0.289,0.387c-0.079,0.075 -0.103,0.088 -0.19,0.151l-0.001,0c-0.092,0.055 -0.114,0.072 -0.213,0.114c-0.149,0.064 -0.309,0.102 -0.471,0.111c-0.162,0.009 -0.325,-0.01 -0.48,-0.057c-0.513,-0.154 -0.899,-0.603 -0.976,-1.133c-0.023,-0.161 -0.018,-0.325 0.015,-0.483c0.058,-0.279 0.202,-0.536 0.409,-0.731c0.079,-0.074 0.103,-0.087 0.191,-0.15l0,0c0.092,-0.055 0.114,-0.072 0.213,-0.115c0.149,-0.064 0.309,-0.101 0.471,-0.11c0.04,-0.003 0.081,-0.001 0.121,-0.002c0.041,0.003 0.081,0.006 0.121,0.009ZM16.905,175.264c0.043,0.008 0.085,0.013 0.127,0.023c0.167,0.038 0.327,0.107 0.47,0.203c0.094,0.064 0.113,0.086 0.198,0.162l0,0c0.03,0.032 0.06,0.062 0.088,0.095c0.11,0.131 0.196,0.283 0.252,0.445c0.056,0.162 0.081,0.335 0.074,0.506c-0.005,0.129 -0.027,0.256 -0.067,0.379c-0.135,0.411 -0.462,0.743 -0.871,0.884c-0.122,0.041 -0.249,0.066 -0.378,0.073c-0.301,0.016 -0.603,-0.067 -0.853,-0.236c-0.095,-0.064 -0.114,-0.086 -0.198,-0.162l-0.001,0c-0.029,-0.032 -0.059,-0.062 -0.087,-0.095c-0.11,-0.131 -0.196,-0.283 -0.252,-0.445c-0.042,-0.122 -0.067,-0.249 -0.074,-0.377c-0.028,-0.522 0.249,-1.028 0.704,-1.286c0.149,-0.085 0.314,-0.141 0.484,-0.166c0.113,-0.017 0.142,-0.013 0.256,-0.014c0.043,0.004 0.086,0.007 0.128,0.011ZM209.538,172.341c0.04,0.006 0.08,0.01 0.12,0.017c0.159,0.03 0.313,0.088 0.452,0.171c0.105,0.062 0.201,0.138 0.286,0.225c0.374,0.383 0.494,0.964 0.305,1.464c-0.057,0.152 -0.141,0.293 -0.247,0.416c-0.071,0.082 -0.093,0.098 -0.174,0.169l0,0c-0.086,0.065 -0.106,0.084 -0.2,0.137c-0.142,0.079 -0.297,0.134 -0.457,0.16c-0.528,0.086 -1.073,-0.148 -1.374,-0.59c-0.092,-0.134 -0.159,-0.284 -0.199,-0.441c-0.04,-0.157 -0.052,-0.321 -0.036,-0.482c0.028,-0.283 0.145,-0.554 0.33,-0.769c0.071,-0.082 0.093,-0.098 0.174,-0.17l0,0c0.086,-0.064 0.106,-0.084 0.2,-0.136c0.142,-0.08 0.297,-0.134 0.457,-0.16c0.106,-0.017 0.134,-0.015 0.242,-0.018c0.04,0.002 0.08,0.004 0.121,0.007ZM13.08,171.221c0.113,0.01 0.143,0.009 0.254,0.035c0.209,0.05 0.405,0.148 0.57,0.285c0.088,0.073 0.105,0.097 0.182,0.182l0,0c0.069,0.091 0.089,0.112 0.145,0.212c0.146,0.263 0.204,0.572 0.162,0.87c-0.024,0.17 -0.08,0.335 -0.163,0.485c-0.063,0.112 -0.141,0.215 -0.232,0.306c-0.307,0.306 -0.749,0.454 -1.177,0.394c-0.128,-0.018 -0.253,-0.054 -0.37,-0.106c-0.157,-0.07 -0.301,-0.168 -0.422,-0.29c-0.03,-0.03 -0.058,-0.063 -0.087,-0.095l0,0c-0.025,-0.034 -0.053,-0.067 -0.077,-0.102c-0.097,-0.142 -0.167,-0.302 -0.206,-0.469c-0.109,-0.465 0.034,-0.965 0.372,-1.302c0.091,-0.091 0.195,-0.169 0.307,-0.232c0.15,-0.083 0.315,-0.138 0.485,-0.162c0.043,-0.006 0.086,-0.008 0.128,-0.012c0.043,0 0.086,0 0.129,0.001ZM9.828,166.829c0.043,0.005 0.085,0.007 0.128,0.014c0.085,0.013 0.168,0.034 0.249,0.063c0.202,0.072 0.387,0.191 0.536,0.345c0.079,0.082 0.093,0.108 0.161,0.2l0,0c0.022,0.037 0.045,0.073 0.065,0.111c0.081,0.151 0.134,0.317 0.155,0.488c0.015,0.127 0.013,0.257 -0.007,0.384c-0.067,0.428 -0.337,0.808 -0.719,1.012c-0.113,0.06 -0.235,0.105 -0.361,0.133c-0.167,0.036 -0.342,0.041 -0.511,0.014c-0.298,-0.046 -0.576,-0.191 -0.785,-0.408c-0.08,-0.082 -0.094,-0.108 -0.161,-0.2l0,0c-0.022,-0.037 -0.046,-0.073 -0.066,-0.11c-0.081,-0.152 -0.133,-0.318 -0.154,-0.488c-0.016,-0.128 -0.013,-0.258 0.007,-0.385c0.067,-0.427 0.337,-0.807 0.718,-1.011c0.152,-0.081 0.318,-0.134 0.488,-0.155c0.043,-0.005 0.086,-0.006 0.128,-0.009c0.043,0 0.086,0.001 0.129,0.002ZM216.467,165.495c0.039,0.004 0.079,0.007 0.118,0.013c0.156,0.023 0.307,0.073 0.446,0.147c0.423,0.226 0.705,0.664 0.735,1.142c0.007,0.118 0,0.237 -0.023,0.353c-0.03,0.155 -0.087,0.304 -0.167,0.44c-0.053,0.091 -0.072,0.11 -0.136,0.193l0,0c-0.071,0.077 -0.087,0.099 -0.167,0.166c-0.121,0.102 -0.259,0.182 -0.407,0.238c-0.147,0.055 -0.304,0.086 -0.462,0.089c-0.437,0.008 -0.863,-0.196 -1.13,-0.542c-0.072,-0.094 -0.132,-0.197 -0.178,-0.305c-0.062,-0.145 -0.099,-0.301 -0.109,-0.458c-0.017,-0.276 0.05,-0.555 0.19,-0.793c0.053,-0.091 0.072,-0.11 0.137,-0.193l0,0c0.081,-0.088 0.162,-0.169 0.26,-0.239c0.162,-0.113 0.347,-0.192 0.54,-0.229c0.104,-0.02 0.13,-0.018 0.235,-0.025c0.039,0.001 0.079,0.002 0.118,0.003ZM7.103,162.096c0.042,0.006 0.085,0.01 0.127,0.017c0.085,0.015 0.168,0.038 0.248,0.069c0.241,0.091 0.454,0.25 0.611,0.455c0.07,0.091 0.081,0.118 0.137,0.217l0,0c0.018,0.039 0.037,0.078 0.053,0.118c0.063,0.159 0.096,0.33 0.097,0.502c0.001,0.171 -0.029,0.343 -0.09,0.503c-0.154,0.405 -0.496,0.721 -0.912,0.843c-0.123,0.036 -0.252,0.054 -0.38,0.055c-0.129,0.001 -0.257,-0.016 -0.381,-0.05c-0.291,-0.081 -0.551,-0.256 -0.734,-0.495c-0.069,-0.091 -0.08,-0.118 -0.137,-0.218l0,0c-0.017,-0.039 -0.037,-0.077 -0.052,-0.117c-0.063,-0.159 -0.097,-0.331 -0.098,-0.502c-0.003,-0.523 0.297,-1.015 0.763,-1.251c0.153,-0.078 0.32,-0.127 0.491,-0.144c0.043,-0.004 0.086,-0.004 0.129,-0.007c0.042,0.002 0.085,0.004 0.128,0.005ZM219.745,161.293c0.039,0.006 0.078,0.011 0.117,0.019c0.154,0.033 0.302,0.092 0.437,0.175c0.373,0.228 0.622,0.629 0.66,1.065c0.01,0.118 0.006,0.237 -0.014,0.353c-0.026,0.156 -0.079,0.306 -0.155,0.444c-0.019,0.035 -0.041,0.068 -0.062,0.101l0,0c-0.062,0.085 -0.075,0.108 -0.148,0.184c-0.109,0.114 -0.237,0.21 -0.377,0.281c-0.141,0.072 -0.293,0.119 -0.45,0.139c-0.434,0.057 -0.879,-0.099 -1.183,-0.414c-0.082,-0.085 -0.153,-0.18 -0.211,-0.283c-0.077,-0.138 -0.131,-0.288 -0.158,-0.444c-0.047,-0.272 -0.012,-0.556 0.101,-0.809c0.043,-0.095 0.06,-0.116 0.115,-0.206l0,0c0.071,-0.097 0.143,-0.186 0.233,-0.266c0.207,-0.183 0.467,-0.302 0.742,-0.338c0.104,-0.014 0.131,-0.011 0.235,-0.011c0.04,0.003 0.079,0.007 0.118,0.01ZM4.981,157.069c0.113,0.018 0.142,0.019 0.251,0.053c0.288,0.089 0.542,0.273 0.718,0.518c0.05,0.069 0.093,0.144 0.13,0.221c0.018,0.039 0.032,0.079 0.049,0.119l0,0c0.033,0.109 0.046,0.136 0.064,0.249c0.048,0.297 -0.003,0.607 -0.143,0.873c-0.081,0.152 -0.189,0.288 -0.319,0.401c-0.326,0.283 -0.778,0.4 -1.201,0.31c-0.126,-0.027 -0.248,-0.071 -0.362,-0.131c-0.113,-0.06 -0.219,-0.136 -0.312,-0.225c-0.124,-0.119 -0.225,-0.26 -0.298,-0.416c-0.018,-0.038 -0.033,-0.079 -0.049,-0.119l0,0c-0.013,-0.041 -0.027,-0.081 -0.038,-0.122c-0.043,-0.167 -0.055,-0.34 -0.035,-0.511c0.061,-0.519 0.42,-0.971 0.912,-1.148c0.121,-0.043 0.248,-0.07 0.376,-0.079c0.043,-0.002 0.086,-0.001 0.129,-0.002c0.042,0.003 0.085,0.006 0.128,0.009ZM222.376,156.734c0.039,0.005 0.079,0.008 0.117,0.015c0.156,0.027 0.306,0.081 0.444,0.158c0.453,0.255 0.732,0.756 0.708,1.276c-0.007,0.158 -0.041,0.314 -0.1,0.46c-0.015,0.036 -0.033,0.071 -0.049,0.107l0,0c-0.051,0.092 -0.062,0.117 -0.124,0.201c-0.094,0.127 -0.21,0.237 -0.341,0.325c-0.131,0.088 -0.276,0.153 -0.429,0.192c-0.153,0.04 -0.312,0.053 -0.469,0.039c-0.118,-0.01 -0.234,-0.036 -0.345,-0.075c-0.413,-0.147 -0.738,-0.488 -0.865,-0.907c-0.081,-0.265 -0.08,-0.551 0.002,-0.815c0.031,-0.101 0.045,-0.124 0.088,-0.219l0,0c0.059,-0.105 0.119,-0.203 0.199,-0.293c0.183,-0.207 0.428,-0.357 0.695,-0.426c0.117,-0.03 0.231,-0.039 0.351,-0.044c0.04,0.002 0.079,0.004 0.118,0.006ZM224.411,151.877c0.039,0.004 0.079,0.005 0.118,0.011c0.156,0.02 0.309,0.068 0.449,0.139c0.464,0.236 0.762,0.726 0.76,1.246c0,0.118 -0.016,0.236 -0.046,0.351c-0.01,0.038 -0.023,0.075 -0.035,0.112l0,0.001c-0.04,0.097 -0.046,0.123 -0.098,0.214c-0.078,0.138 -0.178,0.262 -0.297,0.365c-0.119,0.104 -0.255,0.187 -0.402,0.245c-0.146,0.059 -0.303,0.092 -0.46,0.098c-0.118,0.004 -0.237,-0.006 -0.352,-0.032c-0.428,-0.094 -0.794,-0.391 -0.972,-0.791c-0.113,-0.252 -0.148,-0.537 -0.101,-0.809c0.019,-0.104 0.03,-0.128 0.061,-0.228l0,0c0.045,-0.111 0.092,-0.216 0.16,-0.316c0.178,-0.261 0.445,-0.457 0.748,-0.548c0.115,-0.035 0.229,-0.049 0.349,-0.058c0.039,0 0.079,0 0.118,0ZM3.366,151.801c0.042,0.005 0.085,0.007 0.128,0.013c0.084,0.013 0.168,0.033 0.249,0.061c0.326,0.113 0.603,0.347 0.768,0.65c0.041,0.075 0.075,0.154 0.101,0.236c0.014,0.041 0.023,0.083 0.035,0.124l0,0c0.007,0.042 0.016,0.084 0.022,0.127c0.022,0.17 0.012,0.344 -0.028,0.51c-0.031,0.125 -0.079,0.246 -0.143,0.358c-0.214,0.376 -0.6,0.636 -1.03,0.692c-0.127,0.016 -0.257,0.015 -0.384,-0.004c-0.17,-0.025 -0.335,-0.082 -0.484,-0.167c-0.262,-0.149 -0.471,-0.383 -0.59,-0.659c-0.045,-0.105 -0.049,-0.134 -0.079,-0.244l0,-0.001c-0.008,-0.042 -0.017,-0.084 -0.023,-0.126c-0.016,-0.128 -0.015,-0.258 0.004,-0.385c0.07,-0.472 0.387,-0.884 0.826,-1.073c0.118,-0.051 0.243,-0.086 0.371,-0.102c0.043,-0.006 0.085,-0.007 0.128,-0.011c0.043,0.001 0.086,0.001 0.129,0.001ZM225.918,146.8c0.039,0.005 0.078,0.008 0.117,0.015c0.117,0.02 0.23,0.055 0.338,0.103c0.436,0.198 0.747,0.617 0.807,1.092c0.015,0.117 0.015,0.236 0,0.354c-0.005,0.039 -0.013,0.077 -0.02,0.116l0,0c-0.026,0.102 -0.03,0.128 -0.069,0.226c-0.103,0.257 -0.283,0.479 -0.512,0.634c-0.131,0.089 -0.276,0.154 -0.429,0.194c-0.114,0.03 -0.232,0.045 -0.351,0.045c-0.437,0 -0.858,-0.213 -1.119,-0.565c-0.093,-0.126 -0.165,-0.269 -0.211,-0.42c-0.047,-0.15 -0.067,-0.309 -0.06,-0.466c0.004,-0.105 0.012,-0.131 0.03,-0.235l0,0c0.03,-0.116 0.064,-0.226 0.118,-0.333c0.16,-0.318 0.443,-0.567 0.779,-0.686c0.111,-0.039 0.228,-0.064 0.346,-0.074c0.039,-0.004 0.078,-0.004 0.118,-0.005c0.039,0.001 0.078,0.003 0.118,0.005ZM2.508,146.397c0.042,0.006 0.085,0.009 0.128,0.016c0.084,0.015 0.167,0.037 0.248,0.067c0.364,0.135 0.661,0.422 0.807,0.783c0.032,0.079 0.057,0.162 0.074,0.246c0.008,0.042 0.013,0.084 0.02,0.127l0,0c0.002,0.043 0.007,0.085 0.007,0.128c0.003,0.172 -0.026,0.343 -0.086,0.504c-0.059,0.161 -0.149,0.311 -0.263,0.439c-0.286,0.325 -0.718,0.5 -1.15,0.466c-0.128,-0.01 -0.255,-0.038 -0.375,-0.082c-0.121,-0.045 -0.235,-0.106 -0.339,-0.182c-0.243,-0.178 -0.425,-0.434 -0.511,-0.722c-0.033,-0.11 -0.034,-0.139 -0.051,-0.252l0,0c-0.003,-0.043 -0.008,-0.086 -0.008,-0.129c-0.002,-0.128 0.014,-0.257 0.047,-0.381c0.112,-0.418 0.421,-0.767 0.822,-0.93c0.119,-0.048 0.245,-0.08 0.373,-0.094c0.043,-0.004 0.086,-0.005 0.128,-0.008c0.043,0.002 0.086,0.003 0.129,0.004ZM226.673,141.573c0.039,0.004 0.079,0.006 0.118,0.011c0.117,0.016 0.232,0.046 0.341,0.091c0.406,0.166 0.715,0.522 0.823,0.946c0.029,0.114 0.044,0.232 0.043,0.351c0,0.039 -0.004,0.078 -0.006,0.118l0,0c-0.013,0.104 -0.014,0.131 -0.041,0.232c-0.071,0.267 -0.223,0.511 -0.431,0.692c-0.119,0.104 -0.256,0.187 -0.402,0.244c-0.407,0.161 -0.877,0.119 -1.248,-0.113c-0.101,-0.062 -0.193,-0.138 -0.274,-0.224c-0.109,-0.114 -0.197,-0.247 -0.262,-0.391c-0.064,-0.144 -0.103,-0.299 -0.115,-0.456c-0.009,-0.105 -0.004,-0.131 0.001,-0.236l0,0c0.016,-0.119 0.036,-0.232 0.076,-0.345c0.135,-0.374 0.429,-0.678 0.798,-0.824c0.11,-0.043 0.226,-0.073 0.343,-0.087c0.039,-0.005 0.079,-0.006 0.118,-0.009c0.039,0 0.079,0 0.118,0ZM2.482,136.114c0.037,0.003 0.074,0.006 0.111,0.011c0.111,0.017 0.22,0.047 0.324,0.089c0.384,0.157 0.683,0.485 0.804,0.881c0.033,0.108 0.053,0.219 0.059,0.331c0.006,0.099 0.001,0.124 -0.006,0.224l0,0c-0.014,0.098 -0.015,0.124 -0.041,0.22c-0.04,0.144 -0.102,0.282 -0.186,0.406c-0.083,0.125 -0.186,0.235 -0.304,0.327c-0.118,0.092 -0.251,0.164 -0.392,0.213c-0.141,0.05 -0.291,0.076 -0.44,0.078c-0.415,0.007 -0.819,-0.178 -1.086,-0.495c-0.169,-0.201 -0.278,-0.448 -0.314,-0.708c-0.015,-0.113 -0.012,-0.222 -0.005,-0.336l0,0c0.006,-0.037 0.01,-0.074 0.016,-0.111c0.021,-0.11 0.055,-0.217 0.102,-0.319c0.156,-0.343 0.451,-0.612 0.806,-0.736c0.106,-0.037 0.216,-0.061 0.328,-0.072c0.037,-0.004 0.074,-0.004 0.112,-0.006c0.037,0.001 0.074,0.002 0.112,0.003ZM226.602,132.783c0.199,0.005 0.395,0.048 0.575,0.133c0.148,0.07 0.283,0.165 0.398,0.282c0.09,0.091 0.167,0.195 0.229,0.307c0.215,0.393 0.227,0.877 0.031,1.28c-0.066,0.136 -0.155,0.261 -0.262,0.369c-0.123,0.124 -0.269,0.225 -0.43,0.296c-0.171,0.075 -0.356,0.115 -0.543,0.117c-0.175,0.002 -0.35,-0.029 -0.514,-0.092c-0.152,-0.058 -0.294,-0.143 -0.417,-0.251c-0.097,-0.084 -0.182,-0.182 -0.252,-0.289c-0.244,-0.376 -0.293,-0.857 -0.127,-1.273c0.056,-0.141 0.135,-0.273 0.233,-0.389c0.121,-0.142 0.27,-0.259 0.437,-0.343c0.179,-0.089 0.373,-0.136 0.572,-0.146c0.036,-0.001 0.035,-0.001 0.07,-0.001ZM3.561,130.377c0.098,0.016 0.123,0.017 0.219,0.044c0.108,0.031 0.212,0.075 0.309,0.131c0.393,0.227 0.656,0.641 0.693,1.093c0.01,0.112 0.005,0.225 -0.013,0.335c-0.006,0.037 -0.015,0.073 -0.022,0.11l0,0c-0.028,0.096 -0.032,0.121 -0.071,0.213c-0.058,0.137 -0.139,0.265 -0.238,0.378c-0.099,0.112 -0.216,0.208 -0.345,0.283c-0.13,0.074 -0.271,0.128 -0.418,0.158c-0.406,0.084 -0.837,-0.022 -1.159,-0.283c-0.116,-0.095 -0.216,-0.208 -0.296,-0.334c-0.141,-0.222 -0.217,-0.482 -0.217,-0.744c0,-0.114 0.017,-0.222 0.04,-0.333l0,0c0.031,-0.109 0.066,-0.213 0.119,-0.314c0.174,-0.334 0.483,-0.586 0.844,-0.692c0.107,-0.031 0.219,-0.049 0.331,-0.054c0.037,-0.001 0.075,0 0.112,0c0.037,0.003 0.075,0.006 0.112,0.009ZM230.115,125.184c0.044,0.005 0.088,0.007 0.132,0.014c0.175,0.026 0.344,0.086 0.497,0.176c0.114,0.067 0.218,0.151 0.309,0.247c0.274,0.292 0.411,0.697 0.37,1.096c-0.014,0.132 -0.046,0.262 -0.096,0.384c-0.067,0.164 -0.166,0.314 -0.289,0.441c-0.03,0.032 -0.064,0.061 -0.096,0.091l0,0c-0.093,0.072 -0.114,0.094 -0.217,0.152c-0.27,0.153 -0.589,0.212 -0.895,0.165c-0.175,-0.026 -0.345,-0.086 -0.497,-0.176c-0.345,-0.203 -0.591,-0.553 -0.664,-0.947c-0.024,-0.13 -0.029,-0.264 -0.015,-0.396c0.013,-0.132 0.046,-0.262 0.096,-0.384c0.067,-0.164 0.165,-0.314 0.288,-0.441c0.031,-0.032 0.065,-0.061 0.097,-0.091l0,0c0.035,-0.027 0.069,-0.056 0.105,-0.081c0.144,-0.102 0.308,-0.175 0.481,-0.215c0.114,-0.027 0.145,-0.026 0.262,-0.036c0.044,0 0.088,0.001 0.132,0.001ZM5.288,124.815c0.098,0.013 0.124,0.014 0.22,0.039c0.109,0.028 0.214,0.07 0.313,0.123c0.433,0.235 0.715,0.694 0.728,1.186c0.003,0.112 -0.007,0.225 -0.031,0.334c-0.021,0.098 -0.032,0.12 -0.065,0.214l0,0.001c-0.046,0.103 -0.094,0.202 -0.16,0.295c-0.152,0.213 -0.364,0.382 -0.606,0.482c-0.139,0.057 -0.286,0.091 -0.435,0.101c-0.149,0.01 -0.3,-0.004 -0.445,-0.042c-0.401,-0.104 -0.742,-0.39 -0.914,-0.766c-0.063,-0.136 -0.103,-0.282 -0.119,-0.431c-0.016,-0.149 -0.008,-0.3 0.024,-0.446c0.021,-0.097 0.032,-0.12 0.065,-0.214l0,0c0.015,-0.035 0.029,-0.069 0.045,-0.103c0.049,-0.101 0.111,-0.195 0.183,-0.281c0.193,-0.23 0.459,-0.394 0.751,-0.462c0.111,-0.026 0.22,-0.033 0.334,-0.036c0.037,0.002 0.074,0.004 0.112,0.006ZM234.048,121.574c0.044,0.005 0.088,0.008 0.132,0.015c0.174,0.028 0.343,0.09 0.494,0.182c0.114,0.068 0.217,0.153 0.307,0.25c0.333,0.363 0.45,0.889 0.303,1.359c-0.053,0.169 -0.139,0.327 -0.251,0.464c-0.028,0.034 -0.059,0.065 -0.088,0.098l0,0c-0.087,0.08 -0.106,0.103 -0.203,0.17c-0.257,0.175 -0.569,0.26 -0.879,0.24c-0.176,-0.012 -0.35,-0.058 -0.509,-0.134c-0.12,-0.057 -0.231,-0.132 -0.33,-0.22c-0.098,-0.089 -0.184,-0.192 -0.253,-0.305c-0.211,-0.341 -0.264,-0.765 -0.143,-1.147c0.053,-0.169 0.138,-0.327 0.25,-0.464c0.028,-0.034 0.059,-0.066 0.088,-0.098l0.001,-0.001c0.086,-0.079 0.105,-0.102 0.203,-0.169c0.146,-0.1 0.31,-0.171 0.483,-0.21c0.115,-0.026 0.145,-0.024 0.263,-0.033c0.044,0.001 0.088,0.002 0.132,0.003ZM7.719,119.533c0.099,0.01 0.124,0.01 0.222,0.032c0.109,0.024 0.216,0.062 0.316,0.112c0.134,0.067 0.257,0.155 0.363,0.261c0.293,0.293 0.443,0.711 0.401,1.124c-0.011,0.111 -0.036,0.221 -0.073,0.327c-0.033,0.094 -0.047,0.115 -0.092,0.204l0,0c-0.058,0.098 -0.118,0.189 -0.196,0.273c-0.177,0.193 -0.409,0.333 -0.662,0.401c-0.145,0.039 -0.295,0.054 -0.444,0.046c-0.414,-0.025 -0.804,-0.239 -1.046,-0.575c-0.088,-0.121 -0.156,-0.257 -0.2,-0.4c-0.045,-0.142 -0.066,-0.292 -0.064,-0.442c0.003,-0.149 0.03,-0.298 0.081,-0.439c0.033,-0.094 0.047,-0.115 0.091,-0.204l0,0c0.059,-0.098 0.119,-0.189 0.196,-0.273c0.178,-0.193 0.41,-0.333 0.663,-0.401c0.11,-0.03 0.219,-0.041 0.332,-0.048c0.037,0.001 0.075,0.002 0.112,0.002ZM237.63,117.626c0.044,0.005 0.088,0.009 0.131,0.016c0.175,0.029 0.343,0.091 0.494,0.183c0.113,0.069 0.217,0.154 0.306,0.252c0.301,0.33 0.426,0.795 0.332,1.232c-0.037,0.172 -0.108,0.338 -0.206,0.484c-0.025,0.037 -0.053,0.071 -0.08,0.107l0,0c-0.029,0.032 -0.058,0.066 -0.089,0.098c-0.125,0.125 -0.273,0.226 -0.436,0.296c-0.368,0.158 -0.795,0.149 -1.156,-0.026c-0.119,-0.058 -0.23,-0.133 -0.328,-0.222c-0.099,-0.089 -0.184,-0.192 -0.253,-0.305c-0.092,-0.151 -0.155,-0.319 -0.185,-0.493c-0.052,-0.306 0.001,-0.626 0.15,-0.898c0.056,-0.104 0.077,-0.125 0.148,-0.22l0,0c0.079,-0.087 0.096,-0.112 0.187,-0.187c0.17,-0.141 0.374,-0.241 0.59,-0.288c0.115,-0.025 0.145,-0.023 0.262,-0.032c0.044,0.001 0.089,0.002 0.133,0.003ZM10.878,114.604c0.098,0.013 0.124,0.014 0.22,0.039c0.109,0.028 0.214,0.07 0.312,0.123c0.132,0.072 0.252,0.164 0.354,0.274c0.283,0.303 0.417,0.726 0.362,1.137c-0.021,0.148 -0.065,0.293 -0.131,0.427c-0.044,0.09 -0.06,0.109 -0.115,0.193l0,0c-0.06,0.078 -0.074,0.1 -0.144,0.171c-0.105,0.106 -0.227,0.196 -0.36,0.263c-0.134,0.068 -0.278,0.114 -0.426,0.136c-0.41,0.06 -0.835,-0.069 -1.142,-0.349c-0.11,-0.1 -0.204,-0.219 -0.277,-0.349c-0.073,-0.131 -0.125,-0.273 -0.153,-0.42c-0.048,-0.258 -0.023,-0.527 0.074,-0.771c0.042,-0.106 0.098,-0.2 0.16,-0.295l0,0c0.069,-0.09 0.14,-0.174 0.226,-0.248c0.199,-0.171 0.445,-0.284 0.704,-0.322c0.099,-0.015 0.124,-0.013 0.224,-0.015c0.037,0.002 0.075,0.004 0.112,0.006ZM240.762,113.333c0.044,0.005 0.088,0.007 0.132,0.013c0.175,0.027 0.344,0.086 0.497,0.176c0.114,0.067 0.219,0.15 0.31,0.246c0.274,0.292 0.412,0.697 0.372,1.095c-0.018,0.176 -0.07,0.348 -0.152,0.505c-0.02,0.039 -0.044,0.076 -0.067,0.114l0,0.001c-0.068,0.095 -0.083,0.122 -0.164,0.207c-0.216,0.223 -0.505,0.37 -0.812,0.412c-0.397,0.055 -0.807,-0.068 -1.108,-0.332c-0.1,-0.087 -0.187,-0.189 -0.258,-0.301c-0.071,-0.112 -0.126,-0.234 -0.162,-0.361c-0.049,-0.17 -0.065,-0.349 -0.047,-0.525c0.018,-0.176 0.069,-0.348 0.151,-0.505c0.021,-0.039 0.045,-0.076 0.067,-0.114l0,0c0.069,-0.096 0.083,-0.122 0.165,-0.207c0.184,-0.191 0.423,-0.327 0.681,-0.389c0.115,-0.027 0.145,-0.025 0.263,-0.036c0.044,0.001 0.088,0.001 0.132,0.001ZM243.509,108.72c0.043,0.008 0.087,0.013 0.13,0.023c0.13,0.029 0.255,0.077 0.371,0.141c0.35,0.194 0.604,0.538 0.687,0.93c0.028,0.129 0.036,0.263 0.026,0.395c-0.01,0.132 -0.039,0.263 -0.086,0.387c-0.016,0.041 -0.036,0.081 -0.053,0.121l0,0c-0.022,0.039 -0.041,0.079 -0.064,0.116c-0.093,0.151 -0.215,0.283 -0.357,0.388c-0.107,0.079 -0.225,0.142 -0.349,0.188c-0.124,0.045 -0.255,0.073 -0.388,0.082c-0.399,0.026 -0.799,-0.126 -1.081,-0.411c-0.124,-0.126 -0.224,-0.275 -0.293,-0.438c-0.12,-0.286 -0.141,-0.609 -0.059,-0.909c0.031,-0.113 0.047,-0.139 0.094,-0.247l0,0c0.057,-0.103 0.068,-0.131 0.139,-0.225c0.187,-0.248 0.457,-0.428 0.757,-0.506c0.085,-0.023 0.173,-0.037 0.261,-0.042c0.044,-0.003 0.088,-0.002 0.133,-0.003c0.044,0.004 0.088,0.007 0.132,0.01ZM11.598,106.404c0.085,0.006 0.106,0.006 0.189,0.021c0.156,0.028 0.307,0.082 0.445,0.161c0.361,0.206 0.615,0.571 0.683,0.981c0.021,0.125 0.025,0.253 0.011,0.379c-0.017,0.158 -0.062,0.312 -0.131,0.455c-0.069,0.142 -0.162,0.273 -0.275,0.384c-0.113,0.112 -0.244,0.204 -0.388,0.271c-0.172,0.08 -0.361,0.125 -0.551,0.13c-0.159,0.005 -0.318,-0.018 -0.468,-0.067c-0.121,-0.039 -0.236,-0.095 -0.342,-0.165c-0.346,-0.23 -0.575,-0.612 -0.615,-1.026c-0.015,-0.157 -0.003,-0.318 0.036,-0.471c0.038,-0.154 0.103,-0.301 0.191,-0.433c0.105,-0.158 0.243,-0.295 0.403,-0.398c0.133,-0.086 0.281,-0.149 0.435,-0.186c0.082,-0.019 0.104,-0.02 0.187,-0.031c0.096,-0.006 0.095,-0.006 0.19,-0.005ZM245.533,103.806c0.044,0.006 0.088,0.011 0.131,0.019c0.13,0.026 0.257,0.069 0.375,0.13c0.437,0.227 0.728,0.681 0.75,1.173c0.006,0.132 -0.007,0.265 -0.038,0.394c-0.011,0.043 -0.025,0.085 -0.038,0.127l0,0c-0.044,0.109 -0.051,0.139 -0.11,0.241c-0.156,0.268 -0.401,0.48 -0.689,0.595c-0.123,0.049 -0.253,0.08 -0.385,0.093c-0.132,0.012 -0.266,0.005 -0.396,-0.02c-0.393,-0.076 -0.741,-0.325 -0.941,-0.672c-0.088,-0.154 -0.147,-0.323 -0.172,-0.499c-0.024,-0.175 -0.016,-0.354 0.026,-0.526c0.011,-0.043 0.025,-0.084 0.038,-0.127l0,0c0.016,-0.041 0.031,-0.083 0.049,-0.123c0.037,-0.08 0.082,-0.157 0.133,-0.229c0.181,-0.252 0.445,-0.44 0.743,-0.527c0.085,-0.024 0.172,-0.041 0.26,-0.049c0.044,-0.004 0.088,-0.004 0.132,-0.006c0.044,0.002 0.088,0.004 0.132,0.006ZM9.086,101.827c0.084,0.011 0.105,0.012 0.188,0.031c0.154,0.037 0.301,0.101 0.434,0.187c0.349,0.226 0.582,0.606 0.626,1.019c0.014,0.126 0.01,0.254 -0.011,0.379c-0.026,0.156 -0.08,0.308 -0.157,0.446c-0.077,0.139 -0.178,0.264 -0.297,0.368c-0.119,0.105 -0.255,0.189 -0.403,0.248c-0.176,0.071 -0.367,0.104 -0.557,0.099c-0.159,-0.005 -0.316,-0.037 -0.464,-0.095c-0.118,-0.046 -0.23,-0.108 -0.331,-0.184c-0.359,-0.269 -0.569,-0.706 -0.555,-1.154c0.003,-0.127 0.025,-0.253 0.062,-0.374c0.048,-0.151 0.121,-0.294 0.216,-0.421c0.115,-0.152 0.26,-0.28 0.426,-0.374c0.137,-0.078 0.288,-0.133 0.445,-0.16c0.083,-0.015 0.104,-0.015 0.188,-0.021c0.095,0 0.095,0 0.19,0.006ZM246.922,98.672c0.044,0.005 0.088,0.008 0.132,0.016c0.131,0.021 0.258,0.061 0.378,0.119c0.402,0.194 0.692,0.579 0.767,1.019c0.023,0.131 0.026,0.264 0.011,0.396c-0.005,0.044 -0.015,0.087 -0.022,0.131l0,0c-0.03,0.113 -0.033,0.143 -0.08,0.252c-0.121,0.286 -0.338,0.526 -0.61,0.676c-0.351,0.193 -0.777,0.225 -1.153,0.086c-0.125,-0.046 -0.242,-0.11 -0.349,-0.189c-0.106,-0.079 -0.201,-0.173 -0.281,-0.279c-0.106,-0.141 -0.185,-0.303 -0.231,-0.473c-0.047,-0.171 -0.06,-0.35 -0.04,-0.526c0.006,-0.044 0.015,-0.087 0.022,-0.131l0,0c0.011,-0.042 0.021,-0.086 0.034,-0.128c0.027,-0.084 0.061,-0.166 0.103,-0.243c0.17,-0.313 0.458,-0.552 0.796,-0.662c0.084,-0.027 0.171,-0.046 0.259,-0.057c0.043,-0.005 0.088,-0.006 0.132,-0.01c0.044,0.001 0.088,0.002 0.132,0.003ZM7.059,96.929c0.084,0.006 0.105,0.005 0.189,0.02c0.156,0.028 0.307,0.082 0.445,0.16c0.11,0.062 0.212,0.14 0.301,0.23c0.317,0.318 0.462,0.78 0.384,1.222c-0.022,0.125 -0.061,0.247 -0.116,0.361c-0.068,0.143 -0.161,0.274 -0.274,0.385c-0.112,0.112 -0.244,0.204 -0.387,0.272c-0.172,0.081 -0.361,0.127 -0.551,0.133c-0.158,0.004 -0.317,-0.018 -0.468,-0.066c-0.151,-0.049 -0.293,-0.123 -0.419,-0.219c-0.101,-0.077 -0.191,-0.168 -0.268,-0.269c-0.25,-0.332 -0.339,-0.768 -0.239,-1.172c0.038,-0.153 0.102,-0.301 0.189,-0.433c0.105,-0.159 0.243,-0.295 0.402,-0.399c0.133,-0.087 0.28,-0.15 0.434,-0.187c0.083,-0.02 0.104,-0.021 0.188,-0.032c0.095,-0.006 0.094,-0.006 0.19,-0.006ZM247.79,93.412c0.044,0.008 0.088,0.014 0.131,0.024c0.129,0.03 0.254,0.078 0.369,0.143c0.349,0.196 0.601,0.542 0.682,0.934c0.018,0.087 0.027,0.175 0.028,0.263c0,0.045 -0.003,0.089 -0.005,0.133l0,0c-0.006,0.044 -0.009,0.088 -0.017,0.131c-0.032,0.174 -0.097,0.342 -0.19,0.492c-0.094,0.149 -0.217,0.281 -0.36,0.385c-0.107,0.078 -0.225,0.141 -0.35,0.186c-0.377,0.135 -0.803,0.099 -1.152,-0.097c-0.116,-0.065 -0.222,-0.146 -0.314,-0.241c-0.217,-0.222 -0.355,-0.516 -0.388,-0.824c-0.013,-0.117 -0.007,-0.147 -0.003,-0.265l0,0c0.006,-0.044 0.009,-0.088 0.017,-0.131c0.024,-0.131 0.066,-0.258 0.126,-0.376c0.179,-0.358 0.512,-0.627 0.9,-0.725c0.086,-0.022 0.174,-0.036 0.262,-0.041c0.044,-0.003 0.088,-0.001 0.132,-0.002c0.044,0.004 0.088,0.008 0.132,0.011ZM5.89,91.803c0.084,0.007 0.105,0.006 0.189,0.022c0.155,0.03 0.306,0.086 0.443,0.166c0.136,0.08 0.259,0.184 0.361,0.305c0.268,0.318 0.381,0.748 0.303,1.156c-0.023,0.125 -0.064,0.246 -0.12,0.36c-0.071,0.142 -0.166,0.271 -0.28,0.382c-0.114,0.11 -0.246,0.2 -0.391,0.266c-0.173,0.079 -0.362,0.121 -0.552,0.125c-0.159,0.002 -0.317,-0.022 -0.468,-0.073c-0.15,-0.05 -0.291,-0.126 -0.416,-0.224c-0.1,-0.079 -0.188,-0.171 -0.263,-0.273c-0.265,-0.362 -0.34,-0.84 -0.197,-1.266c0.041,-0.12 0.098,-0.234 0.169,-0.339c0.107,-0.158 0.246,-0.292 0.407,-0.394c0.134,-0.085 0.283,-0.146 0.437,-0.181c0.083,-0.019 0.104,-0.019 0.188,-0.029c0.095,-0.005 0.095,-0.005 0.19,-0.003ZM247.612,83.79c0.043,0.006 0.086,0.009 0.128,0.016c0.085,0.015 0.168,0.038 0.248,0.067c0.364,0.136 0.66,0.425 0.806,0.785c0.032,0.08 0.056,0.162 0.073,0.246c0.009,0.042 0.013,0.085 0.02,0.127l0,0c0.002,0.043 0.007,0.086 0.007,0.129c0.003,0.171 -0.027,0.343 -0.087,0.504c-0.151,0.405 -0.491,0.724 -0.906,0.848c-0.123,0.037 -0.251,0.056 -0.38,0.058c-0.129,0.002 -0.258,-0.015 -0.382,-0.048c-0.165,-0.045 -0.322,-0.12 -0.461,-0.222c-0.242,-0.178 -0.423,-0.435 -0.509,-0.723c-0.033,-0.11 -0.034,-0.139 -0.051,-0.252l0,0c-0.002,-0.043 -0.007,-0.086 -0.007,-0.129c-0.002,-0.128 0.014,-0.257 0.048,-0.381c0.113,-0.418 0.422,-0.767 0.823,-0.928c0.12,-0.048 0.246,-0.08 0.374,-0.093c0.042,-0.005 0.085,-0.005 0.128,-0.008c0.043,0.002 0.086,0.003 0.128,0.004ZM5.907,81.617c0.037,0.005 0.074,0.009 0.111,0.015c0.11,0.019 0.219,0.052 0.321,0.097c0.38,0.168 0.67,0.504 0.781,0.903c0.03,0.108 0.046,0.22 0.049,0.332c0.003,0.1 -0.002,0.125 -0.011,0.224l0,0c-0.02,0.112 -0.043,0.219 -0.085,0.325c-0.095,0.244 -0.261,0.458 -0.472,0.613c-0.121,0.089 -0.256,0.157 -0.398,0.203c-0.143,0.046 -0.292,0.068 -0.442,0.066c-0.149,-0.002 -0.299,-0.028 -0.44,-0.077c-0.391,-0.136 -0.708,-0.447 -0.85,-0.837c-0.052,-0.14 -0.08,-0.289 -0.084,-0.438c-0.003,-0.1 0.002,-0.125 0.011,-0.224l0,0c0.007,-0.037 0.012,-0.074 0.02,-0.111c0.023,-0.109 0.06,-0.216 0.11,-0.317c0.165,-0.338 0.467,-0.599 0.825,-0.713c0.107,-0.035 0.218,-0.056 0.33,-0.063c0.037,-0.003 0.075,-0.003 0.112,-0.004c0.037,0.002 0.075,0.004 0.112,0.006ZM246.67,78.146c0.042,0.004 0.085,0.006 0.127,0.013c0.085,0.013 0.169,0.033 0.25,0.061c0.325,0.113 0.602,0.348 0.767,0.651c0.04,0.076 0.074,0.155 0.101,0.236c0.013,0.041 0.022,0.083 0.034,0.124l0,0.001c0.007,0.042 0.016,0.084 0.022,0.126c0.022,0.17 0.012,0.344 -0.029,0.511c-0.042,0.167 -0.114,0.325 -0.212,0.466c-0.074,0.105 -0.163,0.2 -0.262,0.281c-0.336,0.273 -0.791,0.375 -1.211,0.271c-0.125,-0.031 -0.246,-0.079 -0.358,-0.143c-0.261,-0.149 -0.47,-0.384 -0.588,-0.66c-0.045,-0.106 -0.049,-0.135 -0.079,-0.245l0,0c-0.008,-0.042 -0.017,-0.084 -0.023,-0.127c-0.016,-0.127 -0.015,-0.257 0.005,-0.384c0.071,-0.472 0.389,-0.884 0.828,-1.072c0.118,-0.051 0.243,-0.085 0.371,-0.101c0.042,-0.006 0.085,-0.007 0.128,-0.011c0.043,0.001 0.086,0.001 0.129,0.002ZM7.222,75.78c0.037,0.005 0.074,0.009 0.111,0.016c0.11,0.02 0.218,0.054 0.32,0.1c0.45,0.202 0.764,0.64 0.813,1.13c0.012,0.111 0.009,0.224 -0.007,0.335c-0.014,0.099 -0.023,0.123 -0.049,0.219l0,0c-0.033,0.094 -0.039,0.118 -0.084,0.208c-0.067,0.133 -0.155,0.256 -0.261,0.362c-0.106,0.106 -0.229,0.194 -0.362,0.261c-0.134,0.066 -0.279,0.111 -0.427,0.132c-0.148,0.021 -0.299,0.018 -0.446,-0.009c-0.408,-0.075 -0.768,-0.335 -0.968,-0.698c-0.127,-0.23 -0.186,-0.494 -0.17,-0.756c0.007,-0.114 0.031,-0.22 0.061,-0.33l0,0c0.012,-0.035 0.023,-0.071 0.037,-0.105c0.042,-0.104 0.097,-0.203 0.162,-0.294c0.198,-0.274 0.495,-0.47 0.824,-0.544c0.112,-0.025 0.221,-0.032 0.334,-0.034c0.038,0.003 0.075,0.005 0.112,0.007ZM245.171,72.66c0.043,0.007 0.085,0.012 0.127,0.021c0.084,0.018 0.166,0.044 0.245,0.077c0.278,0.115 0.515,0.322 0.667,0.582c0.058,0.098 0.065,0.127 0.109,0.232l0,0.001c0.033,0.109 0.046,0.135 0.064,0.248c0.048,0.298 -0.003,0.607 -0.144,0.873c-0.08,0.152 -0.189,0.288 -0.318,0.401c-0.328,0.283 -0.779,0.4 -1.202,0.309c-0.126,-0.026 -0.248,-0.071 -0.362,-0.131c-0.113,-0.06 -0.219,-0.136 -0.311,-0.225c-0.124,-0.119 -0.226,-0.26 -0.298,-0.416c-0.019,-0.039 -0.033,-0.079 -0.049,-0.119l-0.001,0c-0.012,-0.041 -0.027,-0.081 -0.037,-0.123c-0.032,-0.124 -0.047,-0.253 -0.044,-0.382c0.013,-0.522 0.329,-1.005 0.802,-1.226c0.156,-0.073 0.324,-0.116 0.496,-0.128c0.042,-0.003 0.085,-0.002 0.128,-0.003c0.043,0.003 0.086,0.006 0.128,0.009ZM9.52,70.251c0.098,0.015 0.124,0.016 0.22,0.044c0.108,0.03 0.212,0.074 0.309,0.129c0.463,0.264 0.739,0.783 0.699,1.314c-0.008,0.112 -0.03,0.223 -0.065,0.329c-0.031,0.095 -0.045,0.117 -0.087,0.207l0,0c-0.056,0.099 -0.114,0.191 -0.189,0.277c-0.173,0.197 -0.401,0.343 -0.652,0.418c-0.144,0.042 -0.294,0.061 -0.443,0.056c-0.415,-0.014 -0.809,-0.218 -1.06,-0.549c-0.091,-0.119 -0.162,-0.252 -0.21,-0.394c-0.048,-0.141 -0.073,-0.291 -0.074,-0.44c-0.001,-0.15 0.023,-0.299 0.069,-0.441c0.031,-0.095 0.045,-0.117 0.087,-0.207l0,0c0.056,-0.099 0.114,-0.192 0.189,-0.277c0.198,-0.226 0.467,-0.384 0.761,-0.445c0.111,-0.024 0.221,-0.029 0.334,-0.029c0.037,0.002 0.075,0.005 0.112,0.008ZM242.882,67.403c0.113,0.016 0.142,0.016 0.252,0.047c0.249,0.07 0.475,0.209 0.649,0.399c0.058,0.063 0.11,0.132 0.156,0.205c0.022,0.036 0.041,0.074 0.062,0.112l0,0c0.047,0.104 0.062,0.129 0.094,0.239c0.083,0.29 0.069,0.603 -0.039,0.884c-0.061,0.16 -0.153,0.309 -0.268,0.436c-0.086,0.095 -0.186,0.178 -0.295,0.246c-0.368,0.229 -0.831,0.273 -1.235,0.118c-0.121,-0.046 -0.234,-0.109 -0.337,-0.186c-0.137,-0.103 -0.255,-0.232 -0.346,-0.377c-0.022,-0.037 -0.042,-0.075 -0.062,-0.113l-0.001,0c-0.017,-0.039 -0.036,-0.077 -0.052,-0.117c-0.062,-0.16 -0.095,-0.331 -0.095,-0.503c-0.001,-0.523 0.301,-1.014 0.768,-1.248c0.154,-0.077 0.321,-0.125 0.492,-0.141c0.043,-0.004 0.086,-0.004 0.128,-0.006c0.043,0.001 0.086,0.003 0.129,0.005ZM12.661,65.163c0.099,0.015 0.124,0.016 0.22,0.042c0.108,0.03 0.213,0.073 0.31,0.128c0.131,0.073 0.249,0.168 0.35,0.278c0.278,0.307 0.407,0.733 0.346,1.143c-0.023,0.148 -0.069,0.292 -0.137,0.425c-0.045,0.089 -0.061,0.108 -0.117,0.191l0,0c-0.071,0.089 -0.142,0.171 -0.23,0.245c-0.201,0.168 -0.449,0.277 -0.708,0.312c-0.149,0.02 -0.3,0.015 -0.447,-0.013c-0.147,-0.028 -0.289,-0.08 -0.419,-0.153c-0.131,-0.073 -0.249,-0.168 -0.35,-0.278c-0.278,-0.307 -0.407,-0.732 -0.346,-1.143c0.023,-0.147 0.069,-0.292 0.137,-0.425c0.045,-0.089 0.062,-0.108 0.117,-0.191l0,0c0.071,-0.088 0.142,-0.171 0.23,-0.244c0.201,-0.169 0.449,-0.278 0.709,-0.313c0.098,-0.013 0.124,-0.01 0.223,-0.011c0.038,0.002 0.075,0.005 0.112,0.007ZM239.957,62.464c0.114,0.012 0.143,0.011 0.254,0.039c0.208,0.051 0.404,0.152 0.567,0.291c0.065,0.056 0.125,0.117 0.179,0.184c0.027,0.033 0.051,0.069 0.077,0.103l0,0.001c0.022,0.036 0.046,0.072 0.066,0.11c0.082,0.151 0.135,0.317 0.156,0.487c0.055,0.429 -0.099,0.869 -0.409,1.171c-0.092,0.09 -0.197,0.167 -0.31,0.228c-0.113,0.061 -0.235,0.107 -0.36,0.134c-0.168,0.038 -0.342,0.043 -0.512,0.018c-0.297,-0.046 -0.576,-0.189 -0.786,-0.405c-0.08,-0.082 -0.094,-0.108 -0.162,-0.2l0,0c-0.022,-0.036 -0.046,-0.072 -0.066,-0.11c-0.082,-0.151 -0.135,-0.317 -0.157,-0.487c-0.016,-0.128 -0.014,-0.257 0.005,-0.384c0.065,-0.428 0.334,-0.809 0.714,-1.015c0.151,-0.082 0.317,-0.135 0.488,-0.157c0.042,-0.005 0.085,-0.006 0.128,-0.01c0.043,0.001 0.085,0.001 0.128,0.002ZM16.474,60.582c0.099,0.012 0.125,0.012 0.222,0.035c0.145,0.036 0.284,0.095 0.411,0.174c0.126,0.08 0.24,0.18 0.335,0.296c0.287,0.35 0.386,0.831 0.261,1.267c-0.041,0.144 -0.106,0.28 -0.19,0.404c-0.057,0.082 -0.076,0.099 -0.142,0.173l0,0.001c-0.081,0.078 -0.163,0.151 -0.259,0.212c-0.221,0.141 -0.481,0.217 -0.744,0.218c-0.149,0 -0.299,-0.024 -0.441,-0.071c-0.142,-0.047 -0.276,-0.117 -0.395,-0.207c-0.333,-0.248 -0.54,-0.641 -0.557,-1.055c-0.007,-0.15 0.011,-0.3 0.052,-0.444c0.042,-0.144 0.106,-0.28 0.191,-0.404c0.056,-0.082 0.075,-0.099 0.141,-0.174l0,0c0.082,-0.078 0.164,-0.151 0.26,-0.212c0.158,-0.101 0.336,-0.169 0.52,-0.199c0.098,-0.016 0.124,-0.014 0.223,-0.019c0.038,0.002 0.075,0.003 0.112,0.005ZM236.62,57.907c0.112,0.02 0.141,0.022 0.25,0.057c0.163,0.054 0.316,0.138 0.449,0.246c0.088,0.073 0.105,0.097 0.183,0.181l0,0c0.069,0.09 0.09,0.111 0.146,0.211c0.148,0.262 0.208,0.57 0.169,0.868c-0.023,0.17 -0.077,0.336 -0.16,0.486c-0.062,0.113 -0.139,0.217 -0.229,0.309c-0.304,0.308 -0.745,0.459 -1.174,0.402c-0.128,-0.017 -0.253,-0.051 -0.371,-0.103c-0.157,-0.068 -0.302,-0.165 -0.424,-0.286c-0.03,-0.03 -0.058,-0.063 -0.087,-0.094l0,0c-0.026,-0.034 -0.054,-0.067 -0.078,-0.102c-0.098,-0.141 -0.17,-0.3 -0.21,-0.467c-0.123,-0.508 0.056,-1.056 0.456,-1.393c0.099,-0.083 0.209,-0.152 0.326,-0.204c0.156,-0.071 0.326,-0.112 0.497,-0.121c0.043,-0.002 0.086,0 0.129,-0.001c0.042,0.004 0.085,0.008 0.128,0.011ZM24.051,54.08c0.043,0.007 0.085,0.011 0.127,0.02c0.168,0.035 0.329,0.102 0.473,0.195c0.108,0.07 0.206,0.155 0.291,0.252c0.344,0.393 0.438,0.962 0.239,1.446c-0.065,0.158 -0.16,0.305 -0.278,0.429c-0.079,0.083 -0.104,0.098 -0.194,0.169l0,0c-0.036,0.023 -0.07,0.049 -0.107,0.07c-0.148,0.088 -0.312,0.147 -0.481,0.175c-0.169,0.028 -0.343,0.025 -0.511,-0.01c-0.126,-0.027 -0.249,-0.071 -0.363,-0.13c-0.113,-0.06 -0.219,-0.136 -0.312,-0.224c-0.314,-0.299 -0.473,-0.736 -0.424,-1.167c0.034,-0.299 0.167,-0.583 0.374,-0.801c0.079,-0.083 0.104,-0.098 0.193,-0.169l0.001,0c0.095,-0.063 0.117,-0.082 0.221,-0.131c0.155,-0.073 0.323,-0.117 0.495,-0.13c0.042,-0.003 0.085,-0.002 0.128,-0.003c0.043,0.003 0.086,0.006 0.128,0.009ZM232.697,53.732c0.042,0.007 0.084,0.012 0.126,0.021c0.168,0.036 0.329,0.104 0.472,0.198c0.096,0.063 0.115,0.085 0.201,0.161l0,0c0.029,0.031 0.06,0.061 0.088,0.093c0.112,0.13 0.2,0.281 0.257,0.442c0.145,0.408 0.089,0.871 -0.149,1.232c-0.07,0.108 -0.156,0.205 -0.254,0.289c-0.097,0.084 -0.206,0.155 -0.323,0.209c-0.155,0.072 -0.324,0.115 -0.495,0.126c-0.301,0.019 -0.604,-0.061 -0.856,-0.226c-0.095,-0.063 -0.115,-0.086 -0.2,-0.161l0,0c-0.03,-0.031 -0.061,-0.061 -0.089,-0.093c-0.112,-0.13 -0.199,-0.281 -0.257,-0.443c-0.043,-0.121 -0.069,-0.248 -0.078,-0.376c-0.033,-0.522 0.238,-1.031 0.69,-1.294c0.148,-0.086 0.312,-0.144 0.482,-0.171c0.113,-0.018 0.142,-0.015 0.256,-0.017c0.043,0.004 0.086,0.007 0.129,0.01ZM28.41,51.215c0.042,0.006 0.085,0.011 0.127,0.02c0.168,0.035 0.329,0.101 0.473,0.194c0.108,0.07 0.207,0.155 0.292,0.251c0.285,0.326 0.404,0.776 0.316,1.2c-0.026,0.126 -0.07,0.249 -0.129,0.363c-0.08,0.152 -0.188,0.289 -0.317,0.402c-0.086,0.075 -0.112,0.088 -0.208,0.151l0,0c-0.1,0.053 -0.124,0.07 -0.232,0.11c-0.283,0.103 -0.596,0.111 -0.884,0.023c-0.164,-0.05 -0.319,-0.131 -0.454,-0.237c-0.34,-0.267 -0.539,-0.688 -0.531,-1.121c0.002,-0.129 0.023,-0.257 0.06,-0.38c0.038,-0.123 0.093,-0.24 0.163,-0.349c0.093,-0.144 0.213,-0.27 0.352,-0.371c0.034,-0.025 0.071,-0.047 0.107,-0.07l0,0c0.038,-0.021 0.075,-0.042 0.114,-0.061c0.116,-0.055 0.24,-0.094 0.367,-0.115c0.113,-0.019 0.142,-0.016 0.256,-0.019c0.043,0.003 0.085,0.006 0.128,0.009ZM33.009,48.754c0.112,0.018 0.142,0.018 0.251,0.051c0.165,0.05 0.319,0.131 0.454,0.237c0.101,0.079 0.192,0.172 0.267,0.276c0.076,0.104 0.137,0.219 0.181,0.34c0.165,0.448 0.084,0.962 -0.21,1.338c-0.106,0.135 -0.237,0.25 -0.385,0.338c-0.036,0.022 -0.075,0.04 -0.113,0.06l0,0c-0.04,0.017 -0.078,0.035 -0.119,0.05c-0.161,0.059 -0.333,0.088 -0.504,0.085c-0.129,-0.002 -0.257,-0.022 -0.38,-0.06c-0.414,-0.126 -0.753,-0.445 -0.902,-0.852c-0.044,-0.121 -0.072,-0.247 -0.081,-0.376c-0.013,-0.171 0.006,-0.344 0.056,-0.508c0.087,-0.288 0.269,-0.544 0.513,-0.721c0.092,-0.068 0.12,-0.078 0.22,-0.131l0,-0.001c0.04,-0.016 0.079,-0.035 0.119,-0.049c0.081,-0.03 0.164,-0.052 0.248,-0.066c0.113,-0.019 0.142,-0.016 0.256,-0.019c0.043,0.002 0.086,0.005 0.129,0.008ZM225.039,47.399c0.046,0.007 0.093,0.013 0.139,0.022c0.092,0.02 0.182,0.049 0.268,0.087c0.115,0.05 0.14,0.071 0.245,0.138l0,0c0.099,0.078 0.127,0.094 0.213,0.186c0.193,0.206 0.32,0.471 0.361,0.751c0.02,0.139 0.019,0.282 -0.003,0.421c-0.068,0.422 -0.333,0.797 -0.708,1.001c-0.124,0.068 -0.258,0.116 -0.397,0.143c-0.138,0.028 -0.281,0.034 -0.421,0.019c-0.187,-0.021 -0.37,-0.08 -0.534,-0.172c-0.04,-0.023 -0.079,-0.051 -0.119,-0.076l0,0c-0.098,-0.077 -0.126,-0.093 -0.212,-0.185c-0.129,-0.137 -0.229,-0.301 -0.293,-0.478c-0.179,-0.494 -0.057,-1.062 0.308,-1.44c0.098,-0.102 0.211,-0.188 0.335,-0.256c0.165,-0.09 0.349,-0.146 0.536,-0.163c0.047,-0.005 0.094,-0.004 0.141,-0.006c0.047,0.002 0.094,0.005 0.141,0.008ZM37.799,46.71c0.113,0.017 0.143,0.017 0.252,0.05c0.206,0.06 0.397,0.169 0.554,0.315c0.094,0.088 0.176,0.189 0.243,0.299c0.247,0.408 0.266,0.928 0.049,1.354c-0.059,0.114 -0.133,0.22 -0.221,0.315c-0.117,0.125 -0.257,0.229 -0.411,0.304c-0.039,0.018 -0.079,0.034 -0.119,0.05l0,0.001c-0.04,0.013 -0.081,0.028 -0.122,0.039c-0.165,0.045 -0.339,0.06 -0.51,0.042c-0.43,-0.044 -0.824,-0.294 -1.048,-0.664c-0.067,-0.11 -0.118,-0.229 -0.152,-0.353c-0.034,-0.124 -0.05,-0.253 -0.049,-0.382c0.002,-0.171 0.035,-0.342 0.099,-0.502c0.112,-0.279 0.314,-0.519 0.572,-0.674c0.098,-0.06 0.126,-0.068 0.231,-0.113l0,0c0.109,-0.035 0.135,-0.048 0.248,-0.067c0.113,-0.02 0.142,-0.017 0.256,-0.022c0.043,0.003 0.086,0.005 0.128,0.008ZM42.743,45.082c0.113,0.016 0.143,0.016 0.253,0.048c0.206,0.058 0.398,0.165 0.557,0.31c0.353,0.322 0.518,0.815 0.43,1.284c-0.023,0.127 -0.065,0.25 -0.122,0.365c-0.076,0.154 -0.181,0.293 -0.308,0.408c-0.127,0.116 -0.275,0.208 -0.435,0.27c-0.04,0.015 -0.081,0.027 -0.122,0.04l0,0c-0.111,0.027 -0.139,0.037 -0.253,0.048c-0.3,0.027 -0.605,-0.044 -0.861,-0.203c-0.368,-0.228 -0.613,-0.624 -0.653,-1.055c-0.012,-0.128 -0.006,-0.258 0.018,-0.384c0.023,-0.127 0.064,-0.25 0.122,-0.365c0.076,-0.153 0.181,-0.293 0.308,-0.408c0.127,-0.116 0.275,-0.207 0.435,-0.269c0.04,-0.016 0.081,-0.028 0.122,-0.041l0,0c0.042,-0.01 0.083,-0.022 0.125,-0.03c0.113,-0.021 0.142,-0.018 0.256,-0.023c0.043,0.002 0.086,0.004 0.128,0.005ZM220.412,44.379c0.124,0.023 0.156,0.024 0.275,0.065c0.118,0.041 0.144,0.06 0.255,0.118l0,0c0.039,0.026 0.08,0.05 0.118,0.078c0.151,0.112 0.279,0.255 0.374,0.417c0.071,0.122 0.124,0.255 0.155,0.392c0.032,0.138 0.042,0.28 0.031,0.421c-0.034,0.426 -0.268,0.821 -0.626,1.054c-0.118,0.078 -0.247,0.137 -0.383,0.175c-0.272,0.077 -0.566,0.069 -0.833,-0.024c-0.119,-0.041 -0.145,-0.06 -0.256,-0.118l0,0c-0.104,-0.069 -0.133,-0.083 -0.226,-0.168c-0.14,-0.126 -0.253,-0.281 -0.331,-0.452c-0.058,-0.129 -0.097,-0.266 -0.114,-0.406c-0.053,-0.424 0.097,-0.858 0.4,-1.159c0.1,-0.099 0.215,-0.183 0.341,-0.248c0.167,-0.087 0.351,-0.139 0.539,-0.153c0.047,-0.003 0.094,-0.002 0.141,-0.003c0.047,0.004 0.094,0.008 0.14,0.011ZM47.797,43.86c0.043,0.005 0.086,0.008 0.128,0.016c0.169,0.029 0.332,0.09 0.48,0.178c0.11,0.066 0.211,0.148 0.299,0.242c0.326,0.348 0.452,0.853 0.328,1.314c-0.045,0.166 -0.12,0.323 -0.222,0.461c-0.152,0.208 -0.362,0.371 -0.601,0.467c-0.106,0.043 -0.136,0.046 -0.246,0.074l0,0c-0.113,0.017 -0.141,0.026 -0.256,0.027c-0.301,0.004 -0.6,-0.091 -0.842,-0.269c-0.104,-0.076 -0.197,-0.167 -0.276,-0.268c-0.266,-0.342 -0.358,-0.799 -0.245,-1.217c0.034,-0.124 0.084,-0.244 0.151,-0.354c0.088,-0.147 0.203,-0.277 0.339,-0.383c0.135,-0.105 0.29,-0.185 0.455,-0.234c0.041,-0.012 0.083,-0.021 0.124,-0.031l0.001,0c0.127,-0.02 0.126,-0.02 0.255,-0.027c0.043,0.001 0.086,0.002 0.128,0.004ZM52.918,43.019c0.113,0.012 0.143,0.011 0.254,0.038c0.25,0.062 0.481,0.194 0.661,0.378c0.09,0.092 0.168,0.197 0.229,0.31c0.249,0.459 0.217,1.035 -0.084,1.463c-0.098,0.14 -0.223,0.262 -0.365,0.358c-0.143,0.095 -0.303,0.164 -0.47,0.201c-0.042,0.01 -0.085,0.015 -0.127,0.023l0,0c-0.114,0.009 -0.143,0.015 -0.257,0.009c-0.3,-0.017 -0.592,-0.134 -0.821,-0.329c-0.33,-0.28 -0.514,-0.708 -0.489,-1.14c0.007,-0.129 0.032,-0.256 0.074,-0.378c0.043,-0.121 0.102,-0.237 0.176,-0.342c0.098,-0.141 0.223,-0.262 0.365,-0.358c0.143,-0.095 0.303,-0.164 0.47,-0.201c0.042,-0.01 0.085,-0.015 0.127,-0.023l0,0l0.128,-0.01c0.043,0 0.086,0.001 0.129,0.001ZM215.537,41.768c0.046,0.009 0.092,0.016 0.138,0.028c0.122,0.03 0.149,0.047 0.265,0.096l0,0c0.11,0.06 0.14,0.071 0.24,0.147c0.225,0.171 0.394,0.411 0.481,0.681c0.043,0.134 0.066,0.275 0.067,0.416c0.001,0.141 -0.02,0.282 -0.061,0.417c-0.125,0.408 -0.439,0.743 -0.839,0.895c-0.132,0.05 -0.271,0.079 -0.412,0.087c-0.188,0.011 -0.378,-0.016 -0.554,-0.081c-0.045,-0.016 -0.087,-0.036 -0.13,-0.054l-0.001,0c-0.109,-0.06 -0.14,-0.071 -0.24,-0.148c-0.149,-0.114 -0.275,-0.258 -0.368,-0.422c-0.069,-0.123 -0.12,-0.257 -0.149,-0.395c-0.099,-0.465 0.053,-0.961 0.395,-1.292c0.102,-0.097 0.219,-0.18 0.345,-0.243c0.168,-0.084 0.353,-0.133 0.541,-0.144c0.047,-0.003 0.094,-0.001 0.141,-0.001c0.047,0.004 0.094,0.009 0.141,0.013ZM210.313,39.575c0.125,0.013 0.157,0.012 0.278,0.044c0.046,0.013 0.09,0.029 0.135,0.044l0,0c0.114,0.05 0.145,0.059 0.252,0.126c0.238,0.151 0.428,0.376 0.537,0.637c0.055,0.13 0.09,0.268 0.103,0.408c0.013,0.141 0.005,0.283 -0.025,0.421c-0.089,0.418 -0.373,0.779 -0.758,0.964c-0.127,0.061 -0.264,0.103 -0.403,0.123c-0.187,0.027 -0.378,0.016 -0.56,-0.033c-0.045,-0.012 -0.089,-0.029 -0.134,-0.043l0,0c-0.043,-0.019 -0.087,-0.036 -0.129,-0.057c-0.169,-0.084 -0.319,-0.203 -0.441,-0.347c-0.091,-0.107 -0.165,-0.229 -0.22,-0.359c-0.184,-0.439 -0.128,-0.954 0.148,-1.343c0.081,-0.115 0.18,-0.218 0.292,-0.303c0.15,-0.114 0.323,-0.197 0.506,-0.243c0.121,-0.031 0.154,-0.029 0.278,-0.041c0.047,0.001 0.094,0.001 0.141,0.002ZM59.096,38.289c0.1,0.017 0.126,0.018 0.225,0.047c0.11,0.032 0.216,0.079 0.315,0.137c0.401,0.237 0.662,0.671 0.682,1.136c0.006,0.115 -0.004,0.231 -0.027,0.344c-0.008,0.037 -0.018,0.074 -0.028,0.111l0,0c-0.037,0.111 -0.077,0.215 -0.137,0.316c-0.137,0.232 -0.341,0.421 -0.583,0.54c-0.137,0.068 -0.286,0.113 -0.439,0.132c-0.152,0.02 -0.307,0.014 -0.457,-0.017c-0.418,-0.086 -0.78,-0.366 -0.968,-0.748c-0.051,-0.103 -0.089,-0.213 -0.113,-0.326c-0.032,-0.15 -0.039,-0.305 -0.02,-0.457c0.012,-0.102 0.022,-0.126 0.046,-0.225l0,-0.001c0.038,-0.11 0.078,-0.215 0.138,-0.315c0.176,-0.299 0.464,-0.524 0.796,-0.625c0.111,-0.033 0.225,-0.052 0.34,-0.057c0.038,-0.002 0.076,-0.001 0.115,-0.001c0.038,0.003 0.076,0.006 0.115,0.009ZM205.065,37.838c0.139,0.018 0.139,0.017 0.277,0.049l0,0c0.044,0.016 0.09,0.028 0.133,0.046c0.175,0.069 0.335,0.175 0.469,0.308c0.1,0.099 0.184,0.214 0.25,0.339c0.065,0.125 0.111,0.26 0.136,0.399c0.025,0.139 0.029,0.282 0.011,0.422c-0.053,0.423 -0.305,0.807 -0.673,1.024c-0.244,0.144 -0.53,0.21 -0.812,0.189c-0.125,-0.009 -0.155,-0.021 -0.277,-0.049l0,0c-0.045,-0.016 -0.09,-0.028 -0.134,-0.046c-0.175,-0.069 -0.335,-0.175 -0.468,-0.308c-0.337,-0.336 -0.48,-0.834 -0.373,-1.298c0.032,-0.138 0.084,-0.27 0.156,-0.392c0.071,-0.122 0.161,-0.232 0.266,-0.327c0.175,-0.158 0.389,-0.27 0.618,-0.324c0.123,-0.028 0.155,-0.026 0.28,-0.036c0.047,0.002 0.094,0.003 0.141,0.004ZM199.694,36.542l0.139,0.021c0.122,0.03 0.154,0.033 0.27,0.082c0.261,0.11 0.485,0.299 0.636,0.538c0.076,0.119 0.133,0.25 0.169,0.386c0.037,0.137 0.052,0.278 0.046,0.419c-0.018,0.427 -0.238,0.83 -0.587,1.077c-0.115,0.081 -0.243,0.145 -0.377,0.188c-0.179,0.058 -0.37,0.079 -0.557,0.061c-0.047,-0.004 -0.093,-0.013 -0.14,-0.02l0,0c-0.121,-0.031 -0.153,-0.034 -0.269,-0.083c-0.217,-0.091 -0.41,-0.237 -0.555,-0.423c-0.087,-0.111 -0.157,-0.235 -0.207,-0.367c-0.05,-0.132 -0.08,-0.271 -0.088,-0.412c-0.031,-0.525 0.247,-1.034 0.705,-1.293c0.164,-0.092 0.346,-0.151 0.533,-0.172c0.047,-0.005 0.094,-0.005 0.141,-0.008c0.047,0.002 0.094,0.004 0.141,0.006ZM172.18,36.3c0.213,0.02 0.416,0.076 0.602,0.183c0.163,0.094 0.307,0.222 0.419,0.372c0.099,0.132 0.174,0.282 0.22,0.439c0.047,0.158 0.065,0.324 0.054,0.489c-0.009,0.14 -0.04,0.28 -0.091,0.411c-0.052,0.132 -0.123,0.255 -0.211,0.365c-0.267,0.334 -0.683,0.529 -1.11,0.522c-0.188,-0.004 -0.375,-0.045 -0.547,-0.122c-0.129,-0.058 -0.248,-0.136 -0.354,-0.229c-0.105,-0.094 -0.196,-0.204 -0.269,-0.325c-0.22,-0.366 -0.259,-0.823 -0.104,-1.221c0.06,-0.154 0.147,-0.296 0.257,-0.419c0.109,-0.124 0.24,-0.227 0.385,-0.304c0.19,-0.102 0.395,-0.151 0.608,-0.163c0.071,-0.001 0.07,-0.001 0.141,0.002ZM194.249,35.675l0.139,0.024c0.045,0.012 0.091,0.023 0.135,0.038c0.179,0.059 0.345,0.156 0.485,0.281c0.105,0.094 0.196,0.204 0.269,0.325c0.072,0.121 0.126,0.253 0.158,0.39c0.033,0.138 0.045,0.28 0.035,0.421c-0.03,0.426 -0.26,0.823 -0.615,1.06c-0.196,0.131 -0.425,0.21 -0.659,0.23c-0.126,0.01 -0.157,0.003 -0.282,-0.006l0,0c-0.123,-0.021 -0.156,-0.022 -0.275,-0.062c-0.223,-0.074 -0.426,-0.206 -0.585,-0.38c-0.095,-0.104 -0.174,-0.223 -0.234,-0.351c-0.181,-0.387 -0.172,-0.846 0.023,-1.225c0.065,-0.126 0.149,-0.241 0.248,-0.342c0.099,-0.1 0.213,-0.185 0.338,-0.251c0.166,-0.088 0.35,-0.142 0.538,-0.158c0.047,-0.004 0.094,-0.003 0.141,-0.004c0.047,0.003 0.094,0.006 0.141,0.01ZM178.325,35.404c0.213,0.016 0.417,0.068 0.605,0.173c0.165,0.091 0.311,0.216 0.426,0.364c0.101,0.13 0.178,0.278 0.228,0.435c0.049,0.157 0.07,0.323 0.062,0.488c-0.007,0.141 -0.036,0.28 -0.084,0.413c-0.049,0.132 -0.118,0.257 -0.205,0.368c-0.261,0.338 -0.673,0.541 -1.1,0.541c-0.165,0 -0.329,-0.029 -0.484,-0.086c-0.4,-0.148 -0.717,-0.48 -0.845,-0.888c-0.042,-0.135 -0.064,-0.275 -0.064,-0.417c0,-0.141 0.021,-0.282 0.063,-0.416c0.049,-0.157 0.127,-0.306 0.227,-0.436c0.115,-0.149 0.261,-0.274 0.425,-0.365c0.188,-0.105 0.392,-0.158 0.605,-0.174c0.071,-0.002 0.071,-0.002 0.141,0ZM188.619,35.197c0.047,0.005 0.094,0.007 0.14,0.014c0.186,0.028 0.366,0.095 0.526,0.194c0.12,0.075 0.228,0.167 0.32,0.274c0.092,0.107 0.168,0.228 0.224,0.358c0.169,0.392 0.146,0.851 -0.061,1.224c-0.068,0.124 -0.155,0.237 -0.258,0.334c-0.204,0.195 -0.468,0.325 -0.747,0.368c-0.124,0.019 -0.157,0.015 -0.282,0.015l0,0c-0.047,-0.005 -0.094,-0.007 -0.14,-0.014c-0.186,-0.029 -0.366,-0.095 -0.526,-0.194c-0.12,-0.075 -0.228,-0.168 -0.32,-0.275c-0.279,-0.323 -0.394,-0.768 -0.309,-1.186c0.028,-0.138 0.078,-0.272 0.146,-0.396c0.068,-0.123 0.155,-0.236 0.258,-0.333c0.17,-0.163 0.381,-0.28 0.609,-0.34c0.122,-0.031 0.154,-0.03 0.279,-0.043c0.047,0 0.094,-0.002 0.141,0ZM60.793,33.264c0.101,0.011 0.127,0.01 0.227,0.034c0.112,0.026 0.221,0.066 0.323,0.119c0.449,0.234 0.741,0.706 0.749,1.212c0.002,0.116 -0.01,0.231 -0.036,0.343c-0.024,0.099 -0.036,0.123 -0.072,0.218l0,0.001c-0.043,0.092 -0.051,0.117 -0.106,0.204c-0.081,0.129 -0.185,0.245 -0.304,0.342c-0.09,0.072 -0.189,0.133 -0.293,0.181c-0.387,0.177 -0.845,0.166 -1.223,-0.03c-0.136,-0.071 -0.26,-0.165 -0.366,-0.276c-0.106,-0.111 -0.193,-0.24 -0.257,-0.379c-0.112,-0.245 -0.151,-0.52 -0.111,-0.787c0.017,-0.115 0.052,-0.222 0.093,-0.331l0,0c0.049,-0.106 0.101,-0.205 0.171,-0.299c0.185,-0.246 0.451,-0.426 0.749,-0.507c0.113,-0.031 0.224,-0.042 0.341,-0.048c0.038,0.001 0.076,0.002 0.115,0.003ZM164.386,32.345c0.136,0.011 0.268,0.032 0.398,0.077c0.256,0.091 0.483,0.257 0.647,0.473c0.063,0.083 0.11,0.17 0.156,0.262l0,0c0.035,0.083 0.046,0.104 0.071,0.19c0.038,0.131 0.057,0.266 0.055,0.402c-0.001,0.136 -0.022,0.271 -0.063,0.4c-0.132,0.426 -0.469,0.769 -0.892,0.908c-0.129,0.043 -0.264,0.066 -0.399,0.07c-0.17,0.005 -0.34,-0.022 -0.5,-0.078c-0.256,-0.091 -0.483,-0.257 -0.647,-0.473c-0.063,-0.083 -0.11,-0.17 -0.157,-0.262l0,0c-0.034,-0.083 -0.045,-0.103 -0.07,-0.19c-0.038,-0.131 -0.057,-0.266 -0.056,-0.402c0.005,-0.516 0.306,-0.999 0.768,-1.231c0.121,-0.06 0.251,-0.103 0.385,-0.127c0.089,-0.015 0.112,-0.014 0.202,-0.02c0.034,0 0.068,0.001 0.102,0.001ZM63.162,28.481c0.101,0.014 0.127,0.014 0.226,0.04c0.111,0.03 0.219,0.074 0.319,0.13c0.101,0.056 0.194,0.125 0.278,0.204c0.309,0.292 0.47,0.721 0.429,1.145c-0.011,0.114 -0.036,0.227 -0.075,0.336c-0.034,0.096 -0.049,0.118 -0.095,0.209l0,0c-0.053,0.087 -0.064,0.111 -0.128,0.191c-0.096,0.12 -0.212,0.223 -0.342,0.306c-0.129,0.082 -0.272,0.142 -0.422,0.178c-0.414,0.099 -0.86,-0.001 -1.193,-0.267c-0.09,-0.072 -0.171,-0.155 -0.24,-0.246c-0.093,-0.123 -0.165,-0.26 -0.213,-0.406c-0.084,-0.256 -0.092,-0.534 -0.022,-0.794c0.03,-0.113 0.077,-0.215 0.129,-0.319l0,-0.001c0.061,-0.099 0.124,-0.192 0.204,-0.277c0.185,-0.196 0.426,-0.335 0.688,-0.398c0.114,-0.027 0.226,-0.034 0.342,-0.038c0.038,0.002 0.077,0.004 0.115,0.007ZM161.731,27.234c0.102,0.012 0.2,0.027 0.299,0.057c0.227,0.07 0.435,0.198 0.599,0.37c0.072,0.074 0.129,0.156 0.185,0.242l0,0c0.05,0.09 0.096,0.178 0.128,0.276c0.087,0.258 0.096,0.539 0.026,0.802c-0.044,0.163 -0.118,0.319 -0.217,0.457c-0.079,0.109 -0.175,0.208 -0.283,0.29c-0.353,0.271 -0.827,0.356 -1.252,0.225c-0.13,-0.039 -0.254,-0.098 -0.367,-0.173c-0.112,-0.076 -0.214,-0.168 -0.3,-0.272c-0.058,-0.07 -0.068,-0.09 -0.118,-0.166l0,0c-0.044,-0.079 -0.057,-0.098 -0.092,-0.181c-0.052,-0.125 -0.086,-0.258 -0.101,-0.393c-0.014,-0.135 -0.008,-0.272 0.017,-0.405c0.083,-0.437 0.379,-0.817 0.783,-1.004c0.123,-0.057 0.254,-0.096 0.388,-0.115c0.09,-0.013 0.113,-0.011 0.203,-0.014c0.034,0.002 0.068,0.003 0.102,0.004ZM65.945,23.985c0.101,0.008 0.127,0.007 0.228,0.028c0.112,0.024 0.222,0.062 0.325,0.112c0.419,0.205 0.712,0.617 0.769,1.079c0.014,0.115 0.014,0.231 0,0.345c-0.019,0.152 -0.064,0.301 -0.131,0.439c-0.045,0.092 -0.062,0.112 -0.118,0.197l0,0c-0.072,0.092 -0.144,0.178 -0.234,0.253c-0.205,0.174 -0.46,0.286 -0.727,0.319c-0.153,0.019 -0.308,0.012 -0.458,-0.019c-0.417,-0.088 -0.778,-0.37 -0.964,-0.752c-0.051,-0.104 -0.088,-0.213 -0.112,-0.326c-0.031,-0.15 -0.038,-0.306 -0.018,-0.458c0.019,-0.152 0.063,-0.301 0.131,-0.439c0.045,-0.092 0.062,-0.112 0.118,-0.197l0,-0.001c0.062,-0.08 0.076,-0.102 0.148,-0.175c0.163,-0.163 0.367,-0.284 0.588,-0.349c0.112,-0.033 0.223,-0.047 0.339,-0.056c0.039,0 0.077,0 0.116,0ZM158.487,22.478c0.102,0.015 0.2,0.032 0.298,0.065c0.193,0.065 0.37,0.173 0.518,0.314c0.065,0.062 0.078,0.081 0.136,0.15l0,0c0.06,0.084 0.115,0.167 0.159,0.26c0.117,0.245 0.159,0.524 0.121,0.793c-0.025,0.168 -0.079,0.331 -0.162,0.479c-0.066,0.119 -0.149,0.227 -0.246,0.322c-0.32,0.31 -0.78,0.451 -1.218,0.372c-0.133,-0.025 -0.263,-0.068 -0.384,-0.13c-0.121,-0.061 -0.233,-0.141 -0.331,-0.234c-0.065,-0.063 -0.078,-0.082 -0.136,-0.151l0,0c-0.053,-0.073 -0.068,-0.09 -0.113,-0.169c-0.066,-0.118 -0.116,-0.246 -0.146,-0.378c-0.03,-0.132 -0.041,-0.269 -0.031,-0.404c0.033,-0.48 0.32,-0.918 0.747,-1.14c0.15,-0.078 0.315,-0.128 0.484,-0.147c0.09,-0.011 0.112,-0.008 0.203,-0.009c0.033,0.003 0.067,0.005 0.101,0.007ZM69.315,19.838c0.101,0.011 0.127,0.011 0.227,0.034c0.149,0.036 0.293,0.096 0.422,0.178c0.098,0.061 0.187,0.135 0.266,0.219c0.321,0.337 0.452,0.826 0.345,1.279c-0.035,0.149 -0.096,0.293 -0.178,0.422c-0.054,0.087 -0.073,0.105 -0.138,0.184l0,0c-0.081,0.084 -0.163,0.161 -0.26,0.226c-0.223,0.151 -0.488,0.234 -0.758,0.239c-0.153,0.002 -0.307,-0.021 -0.453,-0.069c-0.145,-0.048 -0.283,-0.12 -0.406,-0.212c-0.092,-0.069 -0.175,-0.15 -0.247,-0.24c-0.267,-0.332 -0.367,-0.778 -0.269,-1.193c0.036,-0.149 0.096,-0.292 0.178,-0.422c0.055,-0.087 0.073,-0.105 0.138,-0.184l0,0c0.082,-0.083 0.163,-0.161 0.26,-0.226c0.159,-0.107 0.34,-0.181 0.529,-0.216c0.101,-0.018 0.127,-0.016 0.229,-0.022c0.038,0.001 0.076,0.002 0.115,0.003ZM154.621,18.123c0.102,0.01 0.201,0.024 0.3,0.052c0.163,0.048 0.316,0.125 0.452,0.228c0.072,0.054 0.087,0.072 0.152,0.134l0,0c0.069,0.076 0.134,0.152 0.189,0.239c0.143,0.231 0.217,0.502 0.21,0.774c-0.013,0.445 -0.244,0.867 -0.613,1.116c-0.113,0.076 -0.236,0.135 -0.366,0.175c-0.129,0.041 -0.264,0.062 -0.4,0.063c-0.17,0.002 -0.339,-0.028 -0.498,-0.087c-0.127,-0.047 -0.247,-0.113 -0.355,-0.195c-0.073,-0.055 -0.087,-0.072 -0.153,-0.134l0,0c-0.061,-0.067 -0.078,-0.082 -0.131,-0.155c-0.08,-0.11 -0.144,-0.231 -0.189,-0.359c-0.045,-0.128 -0.071,-0.263 -0.077,-0.398c-0.024,-0.516 0.25,-1.014 0.698,-1.271c0.147,-0.085 0.309,-0.142 0.477,-0.168c0.089,-0.014 0.112,-0.013 0.202,-0.017c0.034,0.001 0.068,0.002 0.102,0.003ZM73.082,16.057c0.101,0.012 0.127,0.012 0.226,0.038c0.149,0.037 0.291,0.1 0.42,0.184c0.39,0.255 0.63,0.7 0.63,1.165c0,0.154 -0.026,0.307 -0.076,0.452c-0.05,0.146 -0.124,0.282 -0.218,0.403c-0.063,0.081 -0.083,0.097 -0.156,0.169l0,0c-0.089,0.076 -0.177,0.145 -0.28,0.2c-0.237,0.128 -0.509,0.186 -0.778,0.163c-0.153,-0.013 -0.303,-0.051 -0.444,-0.112c-0.14,-0.062 -0.27,-0.147 -0.383,-0.251c-0.313,-0.289 -0.48,-0.715 -0.444,-1.14c0.009,-0.114 0.033,-0.228 0.071,-0.337c0.049,-0.145 0.123,-0.281 0.218,-0.402c0.063,-0.081 0.083,-0.097 0.156,-0.17l0,0c0.078,-0.066 0.095,-0.085 0.181,-0.141c0.161,-0.105 0.343,-0.176 0.532,-0.207c0.101,-0.017 0.128,-0.015 0.23,-0.019c0.038,0.002 0.076,0.003 0.115,0.005ZM150.326,14.208c0.09,0.007 0.113,0.006 0.202,0.023c0.133,0.024 0.263,0.069 0.384,0.131c0.091,0.047 0.172,0.105 0.253,0.168l0.001,0c0.076,0.068 0.148,0.137 0.211,0.219c0.166,0.215 0.266,0.478 0.286,0.749c0.032,0.444 -0.156,0.887 -0.498,1.172c-0.105,0.086 -0.222,0.158 -0.346,0.211c-0.125,0.053 -0.258,0.087 -0.393,0.102c-0.168,0.019 -0.34,0.006 -0.504,-0.037c-0.131,-0.034 -0.257,-0.088 -0.373,-0.159c-0.077,-0.047 -0.094,-0.063 -0.165,-0.118l0,0c-0.068,-0.06 -0.086,-0.074 -0.147,-0.141c-0.09,-0.101 -0.166,-0.216 -0.223,-0.338c-0.174,-0.372 -0.174,-0.811 0,-1.182c0.058,-0.123 0.134,-0.237 0.224,-0.338c0.091,-0.101 0.196,-0.189 0.312,-0.259c0.145,-0.088 0.306,-0.15 0.472,-0.181c0.089,-0.016 0.112,-0.015 0.202,-0.022c0.034,0 0.068,0 0.102,0ZM80.816,10.092c0.107,0.017 0.134,0.018 0.238,0.049c0.155,0.046 0.302,0.12 0.432,0.216c0.097,0.073 0.185,0.158 0.261,0.253c0.332,0.42 0.393,1.01 0.153,1.488c-0.073,0.145 -0.171,0.277 -0.289,0.388c-0.079,0.075 -0.103,0.088 -0.19,0.151l0,0c-0.093,0.055 -0.115,0.072 -0.214,0.115c-0.149,0.065 -0.308,0.103 -0.47,0.112c-0.162,0.01 -0.325,-0.009 -0.48,-0.056c-0.513,-0.153 -0.901,-0.601 -0.979,-1.131c-0.024,-0.16 -0.019,-0.325 0.014,-0.483c0.057,-0.279 0.201,-0.536 0.407,-0.732c0.079,-0.074 0.103,-0.087 0.191,-0.15l0,0c0.035,-0.021 0.068,-0.043 0.104,-0.063c0.143,-0.076 0.299,-0.128 0.459,-0.152c0.107,-0.016 0.134,-0.012 0.242,-0.014c0.04,0.003 0.081,0.006 0.121,0.009ZM142.061,8.427c0.107,0.014 0.135,0.014 0.239,0.041c0.12,0.031 0.227,0.081 0.337,0.137l0,0c0.091,0.057 0.116,0.069 0.2,0.138c0.219,0.181 0.379,0.429 0.454,0.703c0.142,0.517 -0.033,1.083 -0.441,1.43c-0.124,0.105 -0.266,0.188 -0.417,0.244c-0.152,0.056 -0.314,0.086 -0.476,0.087c-0.162,0.001 -0.324,-0.027 -0.477,-0.081c-0.101,-0.037 -0.124,-0.052 -0.22,-0.101l0,0c-0.091,-0.058 -0.117,-0.069 -0.2,-0.138c-0.156,-0.13 -0.283,-0.293 -0.37,-0.476c-0.229,-0.484 -0.155,-1.072 0.187,-1.484c0.103,-0.125 0.228,-0.232 0.368,-0.313c0.14,-0.082 0.294,-0.139 0.453,-0.169c0.107,-0.019 0.134,-0.017 0.242,-0.022c0.04,0.001 0.081,0.003 0.121,0.004ZM85.607,7.275c0.106,0.018 0.134,0.019 0.237,0.051c0.155,0.048 0.301,0.123 0.43,0.221c0.427,0.324 0.633,0.879 0.52,1.403c-0.034,0.158 -0.096,0.31 -0.183,0.447c-0.086,0.137 -0.196,0.259 -0.324,0.359c-0.086,0.066 -0.111,0.077 -0.204,0.131l0,0c-0.098,0.046 -0.121,0.061 -0.224,0.094c-0.271,0.087 -0.566,0.089 -0.837,0.005c-0.155,-0.048 -0.301,-0.123 -0.43,-0.221c-0.427,-0.324 -0.633,-0.879 -0.52,-1.403c0.035,-0.158 0.097,-0.31 0.183,-0.447c0.086,-0.138 0.197,-0.259 0.325,-0.359c0.085,-0.066 0.11,-0.077 0.203,-0.131l0.001,0c0.111,-0.053 0.22,-0.099 0.34,-0.126c0.121,-0.028 0.239,-0.033 0.362,-0.034c0.04,0.003 0.081,0.007 0.121,0.01ZM137.27,5.992c0.107,0.012 0.134,0.012 0.239,0.038c0.105,0.027 0.129,0.04 0.229,0.08l0,0c0.097,0.049 0.123,0.058 0.212,0.119c0.134,0.091 0.252,0.205 0.346,0.337c0.095,0.131 0.167,0.279 0.211,0.435c0.044,0.156 0.06,0.32 0.048,0.481c-0.039,0.534 -0.393,1.009 -0.894,1.199c-0.266,0.101 -0.56,0.118 -0.836,0.048c-0.104,-0.026 -0.129,-0.04 -0.229,-0.08l0,0c-0.096,-0.048 -0.122,-0.057 -0.212,-0.118c-0.134,-0.091 -0.251,-0.206 -0.346,-0.337c-0.263,-0.366 -0.333,-0.847 -0.185,-1.272c0.04,-0.115 0.095,-0.224 0.163,-0.325c0.091,-0.134 0.206,-0.252 0.337,-0.346c0.165,-0.119 0.355,-0.201 0.554,-0.239c0.106,-0.02 0.134,-0.018 0.241,-0.024c0.041,0.001 0.081,0.002 0.122,0.004ZM90.535,4.93c0.107,0.01 0.135,0.009 0.24,0.033c0.158,0.036 0.309,0.1 0.445,0.188c0.102,0.066 0.196,0.146 0.277,0.236c0.302,0.334 0.425,0.805 0.324,1.244c-0.036,0.158 -0.1,0.309 -0.188,0.445c-0.11,0.17 -0.257,0.316 -0.429,0.423c-0.091,0.058 -0.118,0.066 -0.216,0.111l0,0c-0.102,0.036 -0.126,0.048 -0.232,0.071c-0.278,0.06 -0.572,0.032 -0.833,-0.079c-0.15,-0.063 -0.288,-0.152 -0.406,-0.262c-0.393,-0.365 -0.542,-0.938 -0.377,-1.448c0.049,-0.154 0.126,-0.299 0.226,-0.427c0.099,-0.128 0.221,-0.238 0.358,-0.324c0.092,-0.057 0.118,-0.066 0.216,-0.111l0,0c0.102,-0.036 0.127,-0.048 0.232,-0.071c0.106,-0.023 0.134,-0.021 0.241,-0.03c0.041,0 0.081,0.001 0.122,0.001ZM132.26,4.03c0.04,0.004 0.08,0.006 0.12,0.013c0.107,0.016 0.133,0.027 0.236,0.056l0,0.001c0.101,0.038 0.128,0.045 0.223,0.097c0.249,0.135 0.454,0.348 0.58,0.603c0.072,0.145 0.119,0.302 0.137,0.463c0.06,0.532 -0.201,1.065 -0.657,1.344c-0.139,0.084 -0.292,0.144 -0.45,0.176c-0.159,0.032 -0.324,0.037 -0.484,0.012c-0.107,-0.016 -0.132,-0.027 -0.236,-0.057l0,0c-0.1,-0.038 -0.127,-0.045 -0.222,-0.097c-0.178,-0.097 -0.334,-0.232 -0.454,-0.396c-0.072,-0.097 -0.132,-0.205 -0.176,-0.318c-0.18,-0.458 -0.1,-0.991 0.207,-1.376c0.102,-0.127 0.225,-0.235 0.363,-0.32c0.138,-0.084 0.291,-0.144 0.45,-0.176c0.106,-0.022 0.134,-0.02 0.241,-0.028c0.041,0.001 0.081,0.002 0.122,0.003ZM95.801,3.116c0.107,0.012 0.134,0.012 0.239,0.038c0.197,0.048 0.382,0.14 0.54,0.268c0.126,0.101 0.234,0.225 0.318,0.364c0.254,0.422 0.264,0.96 0.026,1.392c-0.058,0.106 -0.131,0.205 -0.215,0.292c-0.113,0.117 -0.245,0.214 -0.391,0.285c-0.097,0.047 -0.124,0.053 -0.226,0.087l0,0c-0.105,0.026 -0.131,0.035 -0.238,0.047c-0.283,0.03 -0.572,-0.028 -0.821,-0.166c-0.142,-0.078 -0.27,-0.181 -0.376,-0.303c-0.352,-0.404 -0.441,-0.99 -0.224,-1.479c0.066,-0.148 0.157,-0.285 0.27,-0.401c0.112,-0.117 0.245,-0.214 0.39,-0.285c0.097,-0.048 0.125,-0.053 0.227,-0.088l0,0c0.105,-0.025 0.13,-0.035 0.238,-0.046c0.04,-0.005 0.081,-0.005 0.121,-0.008c0.041,0.001 0.081,0.002 0.122,0.003ZM127.094,2.552c0.121,0.013 0.121,0.013 0.24,0.035l0,0c0.104,0.03 0.131,0.034 0.23,0.076c0.149,0.064 0.287,0.154 0.405,0.266c0.118,0.111 0.216,0.242 0.289,0.387c0.24,0.478 0.181,1.068 -0.151,1.488c-0.1,0.127 -0.223,0.237 -0.361,0.322c-0.241,0.149 -0.527,0.222 -0.811,0.206c-0.108,-0.006 -0.134,-0.015 -0.24,-0.035l0,0c-0.104,-0.029 -0.131,-0.034 -0.231,-0.076c-0.223,-0.096 -0.42,-0.252 -0.565,-0.447c-0.295,-0.394 -0.358,-0.929 -0.163,-1.382c0.048,-0.112 0.11,-0.217 0.185,-0.312c0.101,-0.127 0.223,-0.237 0.361,-0.322c0.138,-0.085 0.291,-0.146 0.449,-0.179c0.106,-0.022 0.134,-0.02 0.241,-0.028c0.041,0 0.081,0.001 0.122,0.001ZM101.216,1.841c0.107,0.013 0.134,0.013 0.239,0.04c0.157,0.041 0.306,0.11 0.44,0.202c0.133,0.092 0.25,0.207 0.344,0.339c0.285,0.402 0.336,0.938 0.13,1.386c-0.05,0.11 -0.115,0.214 -0.193,0.308c-0.155,0.187 -0.359,0.332 -0.587,0.417c-0.101,0.038 -0.129,0.04 -0.234,0.064l0,0c-0.107,0.015 -0.134,0.022 -0.242,0.023c-0.162,0.001 -0.324,-0.026 -0.476,-0.08c-0.153,-0.055 -0.296,-0.136 -0.421,-0.239c-0.412,-0.342 -0.594,-0.906 -0.459,-1.424c0.041,-0.157 0.109,-0.306 0.201,-0.439c0.162,-0.234 0.394,-0.416 0.661,-0.515c0.101,-0.037 0.129,-0.04 0.234,-0.064l0,0c0.121,-0.017 0.12,-0.017 0.241,-0.023c0.041,0.002 0.081,0.003 0.122,0.005ZM121.82,1.551l0.121,0.012c0.105,0.02 0.133,0.021 0.236,0.055c0.154,0.05 0.299,0.128 0.426,0.228c0.421,0.331 0.617,0.89 0.495,1.412c-0.037,0.157 -0.101,0.308 -0.19,0.444c-0.089,0.136 -0.201,0.256 -0.331,0.353c-0.227,0.17 -0.506,0.268 -0.79,0.277c-0.108,0.003 -0.135,-0.003 -0.242,-0.014l0,0c-0.106,-0.02 -0.134,-0.021 -0.236,-0.055c-0.154,-0.05 -0.299,-0.128 -0.427,-0.228c-0.421,-0.331 -0.617,-0.89 -0.495,-1.412c0.028,-0.118 0.071,-0.232 0.129,-0.34c0.076,-0.142 0.178,-0.272 0.298,-0.38c0.182,-0.162 0.405,-0.275 0.643,-0.325c0.106,-0.022 0.134,-0.021 0.241,-0.029c0.041,0.001 0.081,0.001 0.122,0.002ZM106.721,1.1c0.107,0.013 0.134,0.013 0.239,0.041c0.235,0.063 0.452,0.188 0.624,0.36c0.115,0.114 0.209,0.249 0.278,0.395c0.052,0.11 0.089,0.227 0.11,0.347c0.094,0.527 -0.132,1.075 -0.571,1.383c-0.132,0.093 -0.281,0.162 -0.437,0.204c-0.105,0.029 -0.133,0.029 -0.239,0.043l0,0c-0.108,0.005 -0.135,0.01 -0.243,0c-0.162,-0.014 -0.32,-0.056 -0.467,-0.124c-0.147,-0.068 -0.282,-0.162 -0.397,-0.277c-0.379,-0.378 -0.508,-0.956 -0.326,-1.46c0.056,-0.152 0.138,-0.295 0.242,-0.419c0.182,-0.218 0.431,-0.377 0.705,-0.451c0.104,-0.028 0.132,-0.028 0.239,-0.042l0,0l0.121,-0.006c0.041,0.002 0.081,0.004 0.122,0.006ZM116.49,1.002l0.121,0.013c0.106,0.02 0.133,0.022 0.236,0.057c0.153,0.051 0.298,0.13 0.425,0.23c0.126,0.101 0.235,0.224 0.32,0.363c0.279,0.456 0.269,1.049 -0.027,1.495c-0.067,0.101 -0.147,0.194 -0.238,0.274c-0.213,0.189 -0.483,0.309 -0.765,0.341c-0.108,0.012 -0.135,0.008 -0.243,0.006l0,0c-0.107,-0.011 -0.135,-0.011 -0.24,-0.036c-0.157,-0.038 -0.308,-0.103 -0.443,-0.193c-0.135,-0.089 -0.254,-0.203 -0.351,-0.333c-0.318,-0.43 -0.359,-1.022 -0.103,-1.492c0.058,-0.107 0.13,-0.206 0.213,-0.294c0.196,-0.206 0.454,-0.349 0.733,-0.406c0.105,-0.021 0.133,-0.02 0.241,-0.027c0.04,0.001 0.081,0.001 0.121,0.002Z" style="fill:#005a78;"/></svg>