<?xml version="1.0" encoding="UTF-8" standalone="no"?><!DOCTYPE svg PUBLIC "-//W3C//DTD SVG 1.1//EN" "http://www.w3.org/Graphics/SVG/1.1/DTD/svg11.dtd"><svg width="100%" height="100%" viewBox="0 0 964 720" version="1.1" xmlns="http://www.w3.org/2000/svg" xmlns:xlink="http://www.w3.org/1999/xlink" xml:space="preserve" style="fill-rule:evenodd;clip-rule:evenodd;stroke-linejoin:round;stroke-miterlimit:1.41421;"><rect x="559.063" y="145" width="207.213" height="5.387" style="fill:#82c8b4;fill-rule:nonzero;"/><rect x="218.433" y="145" width="207.213" height="5.387" style="fill:#82c8b4;fill-rule:nonzero;"/><rect x="70.653" y="157.527" width="816.378" height="0.992" style="fill:#82c8b4;fill-rule:nonzero;"/><rect x="70.653" y="274.599" width="816.378" height="0.992" style="fill:#82c8b4;fill-rule:nonzero;"/><rect x="70.653" y="164.614" width="816.378" height="0.992" style="fill:#82c8b4;fill-rule:nonzero;"/><rect x="70.653" y="281.686" width="816.378" height="0.992" style="fill:#82c8b4;fill-rule:nonzero;"/><rect x="70.653" y="297.275" width="816.378" height="0.992" style="fill:#82c8b4;fill-rule:nonzero;"/><path d="M488.409,409.102l-165.401,0l0,-98.504l165.401,0c0,32.835 0,65.669 0,98.504ZM324,311.59l0,96.52l163.417,0l0,-96.52c-54.472,0 -108.945,0 -163.417,0Z" style="fill:#82c8b4;fill-rule:nonzero;"/><path d="M609.827,423.984l-55.984,0l0,-112.961l55.984,0c0,37.654 0,75.307 0,112.961ZM554.835,312.015l0,110.977l54,0l0,-110.977c-18,0 -36,0 -54,0Z" style="fill:#82c8b4;fill-rule:nonzero;"/><path d="M879.307,423.984l-55.984,0l0,-112.961l55.984,0c0,37.654 0,75.307 0,112.961ZM824.315,312.015l0,110.977l54,0l0,-110.977c-18,0 -36,0 -54,0Z" style="fill:#82c8b4;fill-rule:nonzero;"/><path d="M711.496,432.347l-81.685,0l0,-120.898l81.685,0c0,40.299 0,80.599 0,120.898ZM630.803,312.441l0,118.914l79.701,0l0,-118.914c-26.567,0 -53.134,0 -79.701,0Z" style="fill:#82c8b4;fill-rule:nonzero;"/><path d="M800.693,432.347l-81.685,0l0,-120.898l81.685,0c0,40.299 0,80.599 0,120.898ZM720,312.441l0,118.914l79.701,0l0,-118.914c-26.567,0 -53.134,0 -79.701,0Z" style="fill:#82c8b4;fill-rule:nonzero;"/><path d="M617.764,431.213l-71.858,0l0,-127.418l71.858,0c0,42.473 0,84.945 0,127.418ZM546.898,304.787l0,125.434l69.874,0l0,-125.434c-23.291,0 -46.583,0 -69.874,0Z" style="fill:#82c8b4;fill-rule:nonzero;"/><path d="M617.764,602.426l-71.858,0l0,-161.433l71.858,0c0,53.811 0,107.622 0,161.433ZM546.898,441.985l0,159.449l69.874,0l0,-159.449c-23.291,0 -46.583,0 -69.874,0Z" style="fill:#82c8b4;fill-rule:nonzero;"/><path d="M703.559,602.426l-59.386,0l0,-151.228l59.386,0c0,50.409 0,100.819 0,151.228ZM645.165,452.19l0,149.244l57.402,0l0,-149.244c-19.134,0 -38.268,0 -57.402,0Z" style="fill:#82c8b4;fill-rule:nonzero;"/><path d="M790.866,602.426l-59.386,0l0,-151.228l59.386,0c0,50.409 0,100.819 0,151.228ZM732.472,452.19l0,149.244l57.402,0l0,-149.244c-19.134,0 -38.268,0 -57.402,0Z" style="fill:#82c8b4;fill-rule:nonzero;"/><path d="M804.473,663.654l-171.638,0l0,-222.662l171.638,0c0,74.221 0,148.441 0,222.662ZM633.827,441.984l0,220.678l169.654,0l0,-220.678c-56.551,0 -113.103,0 -169.654,0Z" style="fill:#82c8b4;fill-rule:nonzero;"/><path d="M889.89,602.426l-71.858,0l0,-161.433l71.858,0c0,53.811 0,107.622 0,161.433ZM819.024,441.985l0,159.449l69.874,0l0,-159.449c-23.291,0 -46.583,0 -69.874,0Z" style="fill:#82c8b4;fill-rule:nonzero;"/><path d="M617.764,665.922l-71.858,0l0,-54.85l71.858,0c0,18.283 0,36.567 0,54.85ZM546.898,612.064l0,52.866l69.874,0l0,-52.866c-23.291,0 -46.583,0 -69.874,0Z" style="fill:#82c8b4;fill-rule:nonzero;"/><path d="M889.89,665.922l-71.858,0l0,-54.85l71.858,0c0,18.283 0,36.567 0,54.85ZM819.024,612.064l0,52.866l69.874,0l0,-52.866c-23.291,0 -46.583,0 -69.874,0Z" style="fill:#82c8b4;fill-rule:nonzero;"/><path d="M887.244,431.213l-71.858,0l0,-127.418l71.858,0c0,42.473 0,84.945 0,127.418ZM816.378,304.787l0,125.434l69.874,0l0,-125.434c-23.291,0 -46.583,0 -69.874,0Z" style="fill:#82c8b4;fill-rule:nonzero;"/><rect x="715.323" y="441.859" width="0.992" height="219.314" style="fill:#82c8b4;fill-rule:nonzero;"/><path d="M301.701,610.645l-210,0l0,-300.047l210,0c0,100.016 0,200.031 0,300.047ZM92.693,311.59l0,298.063l208.016,0l0,-298.063c-69.339,0 -138.677,0 -208.016,0Z" style="fill:#82c8b4;fill-rule:nonzero;"/><path d="M490.677,675.485l-41.483,-14.98l0.336,-0.933l40.155,14.5l0,-256.182l-173.622,0l0,255.028l31.071,-12.207l0.362,0.924l-32.425,12.739l0,-257.476l175.606,0c0,86.196 0,172.392 0,258.587Z" style="fill:#82c8b4;fill-rule:nonzero;"/><path d="M921.259,180.913l-25.275,0l0,-21.401l25.275,0c0,7.134 0,14.267 0,21.401ZM896.976,160.504l0,19.417l23.291,0l0,-19.417c-7.764,0 -15.527,0 -23.291,0Z" style="fill:#82c8b4;fill-rule:nonzero;"/><path d="M67.653,180.913l-22.157,0l0,-21.401l22.157,0c0,7.134 0,14.267 0,21.401ZM46.488,160.504l0,19.417l20.173,0l0,-19.417c-6.724,0 -13.449,0 -20.173,0Z" style="fill:#82c8b4;fill-rule:nonzero;"/><path d="M610.866,524.473l-59.953,0l0,-46.346l59.953,0c0,15.449 0,30.897 0,46.346ZM551.905,479.119l0,44.362l57.969,0l0,-44.362c-19.323,0 -38.646,0 -57.969,0Z" style="fill:#82c8b4;fill-rule:nonzero;"/><path d="M875.433,520.958l-57.212,0l0,-46.346l57.212,0c0,15.449 0,30.897 0,46.346ZM819.213,475.604l0,44.362l55.228,0l0,-44.362c-18.409,0 -36.819,0 -55.228,0Z" style="fill:#82c8b4;fill-rule:nonzero;"/><path d="M604.535,517.953l-47.291,0l0,-33.307l47.291,0c0,11.102 0,22.205 0,33.307ZM558.236,485.638l0,31.323l45.307,0l0,-31.323c-15.102,0 -30.205,0 -45.307,0Z" style="fill:#82c8b4;fill-rule:nonzero;"/><path d="M869.102,514.437l-47.291,0l0,-33.307l47.291,0c0,11.102 0,22.205 0,33.307ZM822.803,482.122l0,31.323l45.307,0l0,-31.323c-15.102,0 -30.205,0 -45.307,0Z" style="fill:#82c8b4;fill-rule:nonzero;"/><path d="M577.922,441.478l-22.696,37.461l-0.849,-0.514l22.696,-37.461c0.283,0.171 0.566,0.342 0.849,0.514Z" style="fill:#82c8b4;fill-rule:nonzero;"/><path d="M844.723,442.361l-25.043,32.982l-0.79,-0.599l25.043,-32.982c0.263,0.2 0.527,0.399 0.79,0.599Z" style="fill:#82c8b4;fill-rule:nonzero;"/><path d="M606.08,478.073l-0.852,0.508l-22.3,-37.418l0.853,-0.508c7.433,12.473 14.866,24.946 22.299,37.418Z" style="fill:#82c8b4;fill-rule:nonzero;"/><path d="M870.676,474.46l-0.819,0.558l-22.316,-32.736l0.819,-0.558c7.439,10.912 14.878,21.824 22.316,32.736Z" style="fill:#82c8b4;fill-rule:nonzero;"/><rect x="579.26" y="485.731" width="0.992" height="31.616" style="fill:#82c8b4;fill-rule:nonzero;"/><rect x="843.827" y="481.626" width="0.992" height="32.315" style="fill:#82c8b4;fill-rule:nonzero;"/><path d="M641.748,120.52l-64.173,0l0,-106.693l64.173,0c0,35.564 0,71.129 0,106.693ZM578.567,14.819l0,104.709l62.189,0l0,-104.709c-20.73,0 -41.459,0 -62.189,0Z" style="fill:#82c8b4;fill-rule:nonzero;"/><path d="M301.118,120.52l-64.173,0l0,-106.693l64.173,0c0,35.564 0,71.129 0,106.693ZM237.937,14.819l0,104.709l62.189,0l0,-104.709c-20.73,0 -41.459,0 -62.189,0Z" style="fill:#82c8b4;fill-rule:nonzero;"/><path d="M736.583,120.52l-64.173,0l0,-106.693l64.173,0c0,35.564 0,71.129 0,106.693ZM673.402,14.819l0,104.709l62.189,0l0,-104.709c-20.73,0 -41.459,0 -62.189,0Z" style="fill:#82c8b4;fill-rule:nonzero;"/><path d="M395.953,120.52l-64.173,0l0,-106.693l64.173,0c0,35.564 0,71.129 0,106.693ZM332.772,14.819l0,104.709l62.189,0l0,-104.709c-20.73,0 -41.459,0 -62.189,0Z" style="fill:#82c8b4;fill-rule:nonzero;"/><path d="M641.748,5.15l-64.173,0l0,-106.693l64.173,0c0,35.564 0,71.129 0,106.693ZM578.567,-100.551l0,104.709l62.189,0l0,-104.709c-20.73,0 -41.459,0 -62.189,0Z" style="fill:#82c8b4;fill-rule:nonzero;"/><path d="M301.118,5.15l-64.173,0l0,-106.693l64.173,0c0,35.564 0,71.129 0,106.693ZM237.937,-100.551l0,104.709l62.189,0l0,-104.709c-20.73,0 -41.459,0 -62.189,0Z" style="fill:#82c8b4;fill-rule:nonzero;"/><path d="M736.583,5.15l-64.173,0l0,-106.693l64.173,0c0,35.564 0,71.129 0,106.693ZM673.402,-100.551l0,104.709l62.189,0l0,-104.709c-20.73,0 -41.459,0 -62.189,0Z" style="fill:#82c8b4;fill-rule:nonzero;"/><path d="M395.953,5.15l-64.173,0l0,-106.693l64.173,0c0,35.564 0,71.129 0,106.693ZM332.772,-100.551l0,104.709l62.189,0l0,-104.709c-20.73,0 -41.459,0 -62.189,0Z" style="fill:#82c8b4;fill-rule:nonzero;"/><path d="M650.535,132l-80.236,0l0,-242.048l80.236,0c0,80.683 0,161.365 0,242.048ZM571.291,-109.056l0,240.064l78.252,0l0,-240.064c-26.084,0 -52.168,0 -78.252,0Z" style="fill:#82c8b4;fill-rule:nonzero;"/><path d="M309.905,132l-80.236,0l0,-242.048l80.236,0c0,80.683 0,161.365 0,242.048ZM230.661,-109.056l0,240.064l78.252,0l0,-240.064c-26.084,0 -52.168,0 -78.252,0Z" style="fill:#82c8b4;fill-rule:nonzero;"/><path d="M745.37,132l-80.236,0l0,-242.048l80.236,0c0,80.683 0,161.365 0,242.048ZM666.126,-109.056l0,240.064l78.252,0l0,-240.064c-26.084,0 -52.168,0 -78.252,0Z" style="fill:#82c8b4;fill-rule:nonzero;"/><path d="M404.74,132l-80.236,0l0,-242.048l80.236,0c0,80.683 0,161.365 0,242.048ZM325.496,-109.056l0,240.064l78.252,0l0,-240.064c-26.084,0 -52.168,0 -78.252,0Z" style="fill:#82c8b4;fill-rule:nonzero;"/><rect x="551.126" y="137.701" width="222.52" height="0.992" style="fill:#82c8b4;fill-rule:nonzero;"/><rect x="210.496" y="137.701" width="222.52" height="0.992" style="fill:#82c8b4;fill-rule:nonzero;"/><path d="M447.59,660.535l-87.165,0l0,-234.566l87.165,0c0,78.189 0,156.377 0,234.566ZM361.417,426.961l0,232.582l85.181,0l0,-232.582c-28.394,0 -56.787,0 -85.181,0Z" style="fill:#82c8b4;fill-rule:nonzero;"/><path d="M354.118,532.409l-5.173,0l0,22.82l6.307,0l0,0.992l-7.299,0l0,-24.804l6.165,0c0,0.331 0,0.661 0,0.992Z" style="fill:#82c8b4;fill-rule:nonzero;"/><path d="M275.599,585.204l-30.898,93.544l-4.536,0l30.615,-93.544l4.819,0Z" style="fill:#82c8b4;fill-rule:nonzero;"/><path d="M264.173,586.906l-9.742,34.582l-3.062,0l9.459,-34.582l3.345,0Z" style="fill:#82c8b4;fill-rule:nonzero;"/><path d="M256.765,586.906l-9.742,34.582l-3.062,0l9.459,-34.582l3.345,0Z" style="fill:#82c8b4;fill-rule:nonzero;"/><path d="M257.369,586.906l-9.742,34.582l-3.062,0l9.459,-34.582l3.345,0Z" style="fill:#82c8b4;fill-rule:nonzero;"/><path d="M251.096,586.906l-9.742,34.582l-3.062,0l9.459,-34.582l3.345,0Z" style="fill:#82c8b4;fill-rule:nonzero;"/><path d="M242.633,584.639l-26.845,90.708l-3.401,0l26.561,-90.708l3.685,0Z" style="fill:#82c8b4;fill-rule:nonzero;"/><path d="M274.087,586.396l-0.068,2.268l-34.892,-0.907l0,-1.701l34.96,0.34Z" style="fill:#82c8b4;fill-rule:nonzero;"/><path d="M263.599,630.256c0,0 -13.569,0.189 -18.671,0.189c-5.102,0 -35.83,-0.566 -38.097,-3.288c-0.753,-0.902 -2.902,-6.036 2.721,-6.802c5.398,-0.737 13.198,-0.908 17.008,-0.908c6.803,0 37.039,1.802 38.173,3.224c1.134,1.422 -1.134,7.585 -1.134,7.585" style="fill:#82c8b4;fill-rule:nonzero;"/><path d="M261.52,675.347l4.347,0.34l-27.478,-46.488l-3.326,-0.454l26.457,46.602Z" style="fill:#82c8b4;fill-rule:nonzero;"/><path d="M234.244,672.536l2.57,0l-21.921,-46.488l-3.326,-0.453l22.677,46.941Z" style="fill:#82c8b4;fill-rule:nonzero;"/><path d="M280.715,624.096l4,50.457l22.047,0l4,-50.457l-30.047,0Z" style="fill:#82c8b4;fill-rule:nonzero;"/><path d="M280.668,676.026l1.02,2.722l29.859,0l1.323,-2.722l-32.202,0Z" style="fill:#82c8b4;fill-rule:nonzero;"/><path d="M210.961,591.668l-13.531,7.71l-66.066,-0.68l15.647,-7.257l63.95,0.227Z" style="fill:#82c8b4;fill-rule:nonzero;"/><rect x="147.579" y="614.231" width="50.067" height="2.344" style="fill:#82c8b4;fill-rule:nonzero;"/><path d="M200.585,596.376l-7.408,82.318l-3.25,0l8.164,-82.09l2.494,-0.228Z" style="fill:#82c8b4;fill-rule:nonzero;"/><path d="M150.241,596.376l-7.408,82.318l-3.25,0l8.164,-82.09l2.494,-0.228Z" style="fill:#82c8b4;fill-rule:nonzero;"/><rect x="142.703" y="662.195" width="50.57" height="2.948" style="fill:#82c8b4;fill-rule:nonzero;"/><rect x="222.779" y="643.788" width="32.693" height="2.268" style="fill:#82c8b4;fill-rule:nonzero;"/><path d="M66.968,584.355l26.362,94.96l4.536,0l-26.079,-94.961l-4.819,0Z" style="fill:#82c8b4;fill-rule:nonzero;"/><path d="M80.187,586.906l9.742,34.582l3.062,0l-9.459,-34.582l-3.345,0Z" style="fill:#82c8b4;fill-rule:nonzero;"/><path d="M85.802,586.906l9.742,34.582l3.062,0l-9.459,-34.582l-3.345,0Z" style="fill:#82c8b4;fill-rule:nonzero;"/><path d="M85.831,586.906l9.742,34.582l3.062,0l-9.459,-34.582l-3.345,0Z" style="fill:#82c8b4;fill-rule:nonzero;"/><path d="M91.471,586.906l9.742,34.582l3.062,0l-9.459,-34.582l-3.345,0Z" style="fill:#82c8b4;fill-rule:nonzero;"/><path d="M106.549,584.355l26.845,90.707l3.401,0l-26.561,-90.707l-3.685,0Z" style="fill:#82c8b4;fill-rule:nonzero;"/><path d="M71.032,586.111l0.075,2.268l38.948,-0.907l0,-1.701l-39.024,0.34Z" style="fill:#82c8b4;fill-rule:nonzero;"/><path d="M78.968,630.256c0,0 13.569,0.189 18.671,0.189c5.102,0 35.83,-0.566 38.097,-3.288c0.753,-0.902 2.902,-6.036 -2.721,-6.802c-5.398,-0.737 -13.198,-0.908 -17.008,-0.908c-6.803,0 -37.039,1.802 -38.173,3.224c-1.134,1.422 1.134,7.585 1.134,7.585" style="fill:#82c8b4;fill-rule:nonzero;"/><path d="M79.271,675.687l-2.57,0l21.921,-46.489l3.326,-0.452l-22.677,46.941Z" style="fill:#82c8b4;fill-rule:nonzero;"/><path d="M113.803,669.701l-2.57,0l21.921,-46.488l3.326,-0.453l-22.677,46.941Z" style="fill:#82c8b4;fill-rule:nonzero;"/><rect x="92.197" y="643.598" width="32.693" height="2.268" style="fill:#82c8b4;fill-rule:nonzero;"/><path d="M283.252,528.058l-4.649,-2.494l-1.701,-1.134l-1.7,-4.535l1.133,-2.381l2.76,0.906l-0.378,2.155l3.779,-3.288l3.591,-0.34l1.02,-5.103l-2.343,-2.721l-3.213,-0.34l0.454,-3.742l5.782,0.68l3.856,-1.36l1.7,0.34l2.041,0l0,-3.628l-0.793,-3.175l3.212,-1.247l0.87,3.628l3.628,-3.288l2.154,1.927l1.474,2.835l3.062,-5.102l3.628,0.34l-1.587,4.308l1.02,2.041l3.402,1.247l3.401,-0.679l0.907,-3.403l4.309,0.568l2.948,-0.227l1.247,4.082l-0.794,1.814l-0.907,2.154l-4.648,0.681l1.247,2.835l4.12,0.226l4.157,0.566l-1.02,4.876l-2.949,0.681l2.949,4.195l0,3.175l-3.289,-0.341l-1.474,3.629l-4.989,-0.794l-1.927,-3.174l-1.701,3.514l0.68,2.948l-2.608,1.815l-3.855,-0.794l0.454,4.082l-1.436,2.722l-3.402,0.679l-5.027,-1.247l-2.267,-2.381l-1.588,3.855l-4.989,-0.566l-0.567,-2.949l2.948,-1.927l-1.02,-1.701l-5.783,-0.113l-0.907,4.988l-5.216,-0.794l1.928,-3.967l-3.515,-2.268l-2.268,-2.722l4.649,-0.567Z" style="fill:#82c8b4;fill-rule:nonzero;"/><path d="M302.528,535.599c0,0 -0.567,23.149 -0.567,26.173c0,3.023 0.284,35.339 -0.567,39.591c-0.85,4.252 -2.457,26.078 -2.457,26.078l3.024,0.284c0,0 2.646,-36.851 2.646,-45.638c0,-8.788 0.756,-46.205 0.756,-46.205l-2.835,-0.283Z" style="fill:#82c8b4;fill-rule:nonzero;"/><rect x="707.882" y="536.449" width="8.315" height="35.15" style="fill:#82c8b4;fill-rule:nonzero;"/><rect x="718.37" y="536.449" width="8.315" height="35.15" style="fill:#82c8b4;fill-rule:nonzero;"/><path d="M714.005,590.193l13.531,7.71l66.066,-0.68l-15.647,-7.257l-63.95,0.227Z" style="fill:#82c8b4;fill-rule:nonzero;"/><rect x="729.538" y="612.757" width="47.849" height="0.907" style="fill:#82c8b4;fill-rule:nonzero;"/><path d="M724.381,594.901l7.408,82.318l3.25,0l-8.163,-82.09l-2.495,-0.228Z" style="fill:#82c8b4;fill-rule:nonzero;"/><path d="M774.725,594.901l7.408,82.318l3.25,0l-8.164,-82.09l-2.494,-0.228Z" style="fill:#82c8b4;fill-rule:nonzero;"/><rect x="731.693" y="660.72" width="50.57" height="2.948" style="fill:#82c8b4;fill-rule:nonzero;"/><path d="M502.814,624.096l4,50.457l22.047,0l4,-50.457l-30.047,0Z" style="fill:#82c8b4;fill-rule:nonzero;"/><path d="M502.767,676.026l1.02,2.722l29.859,0l1.323,-2.722l-32.202,0Z" style="fill:#82c8b4;fill-rule:nonzero;"/><path d="M514.937,545.973c0,0 -0.643,36.284 -0.567,41.272c0.076,4.99 0.756,38.098 0.756,38.098l2.948,-0.453c0,0 -0.907,-34.47 -0.68,-37.984c0.226,-3.515 1.134,-41.386 1.134,-41.386l-3.591,0.453Z" style="fill:#82c8b4;fill-rule:nonzero;"/><path d="M492.222,506.062l2.306,2.494l0,2.493l2.456,1.589l1.134,1.701l3.175,-2.836l1.587,-2.947l4.12,2.721l1.55,-2.948l5.253,1.814l1.134,-2.948l2.683,2.267l3.175,-0.453l0.681,2.268l3.401,-0.681l0.68,2.722l0.454,2.154l2.041,-1.701l1.361,-2.948l1.398,1.814l2.003,-3.855l2.268,0.68l0,3.175l-2.495,2.041l2.759,4.309l2.911,-1.134l0.226,3.401l-2.721,0.682l0.227,3.4l1.814,0.682l2.268,-0.682l-1.323,2.042l-2.268,1.701l1.323,3.288l-1.814,1.361l1.361,3.4l-1.588,2.495l-3.817,0.908l-1.701,2.721l-1.512,1.7l-4.535,-0.567l-0.681,-1.134l-1.814,1.587l-2.494,0.908l-5.216,0.454l-3.175,-0.908l-3.628,0.454l-2.721,-2.04l2.948,-1.587l-3.629,-3.176l-2.041,0.341l-2.041,-0.341l-0.453,-3.401l-2.041,-1.361l-2.117,-1.701l1.134,-1.701l-5.102,-0.906l-2.079,-2.721l2.721,0l-0.226,-2.269l2.986,0l3.137,-1.361l0,-3.628l-1.134,-2.495l-5.405,-0.793l-1.398,-6.462l3.401,2.494l-3.137,-6.577l2.23,0Z" style="fill:#82c8b4;fill-rule:nonzero;"/><path d="M643.63,584.752c0,0 17.07,37.601 22.753,46.487c7.105,11.113 32.882,45.582 32.882,45.582l2.948,0c0,0 -21.544,-29.254 -31.37,-43.994c-7.876,-11.813 -24.189,-48.075 -24.189,-48.075l-3.024,0Z" style="fill:#82c8b4;fill-rule:nonzero;"/><path d="M657.531,587.359l14.785,34.582l3.062,0l-14.502,-34.582l-3.345,0Z" style="fill:#82c8b4;fill-rule:nonzero;"/><path d="M650.962,587.927l17.396,34.81l1.55,-0.228l-15.601,-34.582l-3.345,0Z" style="fill:#82c8b4;fill-rule:nonzero;"/><path d="M646.88,586.565l0.907,2.494l13.38,-0.907l-0.907,-2.494l-13.38,0.907Z" style="fill:#82c8b4;fill-rule:nonzero;"/><path d="M663.979,630.937c0,0 13.568,0.188 18.671,0.188c5.102,0 33.547,-0.565 35.815,-3.288c0.752,-0.901 1.616,-6.716 -4.007,-7.482c-5.398,-0.736 -9.63,-0.227 -13.44,-0.227c-6.803,0 -37.039,1.802 -38.173,3.223c-1.134,1.423 1.134,7.586 1.134,7.586" style="fill:#82c8b4;fill-rule:nonzero;"/><path d="M668.342,676.845l-3.842,0l39.445,-48.1l4.536,-0.454l-40.139,48.554Z" style="fill:#82c8b4;fill-rule:nonzero;"/></svg>