<?xml version="1.0" encoding="UTF-8" standalone="no"?><!DOCTYPE svg PUBLIC "-//W3C//DTD SVG 1.1//EN" "http://www.w3.org/Graphics/SVG/1.1/DTD/svg11.dtd"><svg width="100%" height="100%" viewBox="0 0 964 350" version="1.1" xmlns="http://www.w3.org/2000/svg" xmlns:xlink="http://www.w3.org/1999/xlink" xml:space="preserve" style="fill-rule:evenodd;clip-rule:evenodd;"><rect x="559.063" y="300.28" width="207.213" height="5.387" style="fill:#82c8b4;fill-rule:nonzero;"/><rect x="218.433" y="300.28" width="207.213" height="5.387" style="fill:#82c8b4;fill-rule:nonzero;"/><path d="M887.031,313.303l-816.378,0" style="fill:none;stroke-width:0.99px;stroke:#82c8b4;"/><path d="M887.031,320.39l-816.378,0" style="fill:none;stroke-width:0.99px;stroke:#82c8b4;"/><rect x="896.48" y="315.288" width="24.283" height="20.409" style="fill:none;stroke-width:0.99px;stroke:#82c8b4;"/><rect x="45.992" y="315.288" width="21.165" height="20.409" style="fill:none;stroke-width:0.99px;stroke:#82c8b4;"/><rect x="578.071" y="169.603" width="63.181" height="105.701" style="fill:none;stroke-width:0.99px;stroke:#82c8b4;"/><rect x="237.441" y="169.603" width="63.181" height="105.701" style="fill:none;stroke-width:0.99px;stroke:#82c8b4;"/><rect x="672.906" y="169.603" width="63.181" height="105.701" style="fill:none;stroke-width:0.99px;stroke:#82c8b4;"/><rect x="332.276" y="169.603" width="63.181" height="105.701" style="fill:none;stroke-width:0.99px;stroke:#82c8b4;"/><rect x="578.071" y="54.233" width="63.181" height="105.701" style="fill:none;stroke-width:0.99px;stroke:#82c8b4;"/><rect x="237.441" y="54.233" width="63.181" height="105.701" style="fill:none;stroke-width:0.99px;stroke:#82c8b4;"/><rect x="672.906" y="54.233" width="63.181" height="105.701" style="fill:none;stroke-width:0.99px;stroke:#82c8b4;"/><rect x="332.276" y="54.233" width="63.181" height="105.701" style="fill:none;stroke-width:0.99px;stroke:#82c8b4;"/><rect x="570.795" y="45.728" width="79.244" height="241.056" style="fill:none;stroke-width:0.99px;stroke:#82c8b4;"/><rect x="230.165" y="45.728" width="79.244" height="241.056" style="fill:none;stroke-width:0.99px;stroke:#82c8b4;"/><rect x="665.63" y="45.728" width="79.244" height="241.056" style="fill:none;stroke-width:0.99px;stroke:#82c8b4;"/><rect x="325" y="45.728" width="79.244" height="241.056" style="fill:none;stroke-width:0.99px;stroke:#82c8b4;"/><path d="M551.126,293.477l222.52,0" style="fill:none;stroke-width:0.99px;stroke:#82c8b4;"/><path d="M210.496,293.477l222.52,0" style="fill:none;stroke-width:0.99px;stroke:#82c8b4;"/></svg>