<?xml version="1.0" encoding="UTF-8" standalone="no"?><!DOCTYPE svg PUBLIC "-//W3C//DTD SVG 1.1//EN" "http://www.w3.org/Graphics/SVG/1.1/DTD/svg11.dtd"><svg width="100%" height="100%" viewBox="0 0 964 720" version="1.1" xmlns="http://www.w3.org/2000/svg" xmlns:xlink="http://www.w3.org/1999/xlink" xml:space="preserve" style="fill-rule:evenodd;clip-rule:evenodd;"><rect x="559.063" y="145" width="207.213" height="5.387" style="fill:#82c8b4;fill-rule:nonzero;"/><rect x="218.433" y="145" width="207.213" height="5.387" style="fill:#82c8b4;fill-rule:nonzero;"/><path d="M887.031,158.023l-816.378,0" style="fill:none;stroke-width:0.99px;stroke:#82c8b4;"/><path d="M887.031,275.095l-816.378,0" style="fill:none;stroke-width:0.99px;stroke:#82c8b4;"/><path d="M887.031,165.11l-816.378,0" style="fill:none;stroke-width:0.99px;stroke:#82c8b4;"/><path d="M887.031,282.182l-816.378,0" style="fill:none;stroke-width:0.99px;stroke:#82c8b4;"/><path d="M887.031,297.772l-816.378,0" style="fill:none;stroke-width:0.99px;stroke:#82c8b4;"/><rect x="323.504" y="311.094" width="164.409" height="97.512" style="fill:none;stroke-width:0.99px;stroke:#82c8b4;"/><rect x="554.339" y="311.519" width="54.992" height="111.969" style="fill:none;stroke-width:0.99px;stroke:#82c8b4;"/><rect x="823.819" y="311.519" width="54.992" height="111.969" style="fill:none;stroke-width:0.99px;stroke:#82c8b4;"/><rect x="630.307" y="311.945" width="80.693" height="119.906" style="fill:none;stroke-width:0.99px;stroke:#82c8b4;"/><rect x="719.504" y="311.945" width="80.693" height="119.906" style="fill:none;stroke-width:0.99px;stroke:#82c8b4;"/><rect x="546.402" y="304.291" width="70.866" height="126.426" style="fill:none;stroke-width:0.99px;stroke:#82c8b4;"/><rect x="546.402" y="441.489" width="70.866" height="160.441" style="fill:none;stroke-width:0.99px;stroke:#82c8b4;"/><rect x="644.669" y="451.694" width="58.394" height="150.236" style="fill:none;stroke-width:0.99px;stroke:#82c8b4;"/><rect x="731.976" y="451.694" width="58.394" height="150.236" style="fill:none;stroke-width:0.99px;stroke:#82c8b4;"/><rect x="633.331" y="441.488" width="170.646" height="221.67" style="fill:none;stroke-width:0.99px;stroke:#82c8b4;"/><rect x="818.528" y="441.489" width="70.866" height="160.441" style="fill:none;stroke-width:0.99px;stroke:#82c8b4;"/><rect x="546.402" y="611.568" width="70.866" height="53.858" style="fill:none;stroke-width:0.99px;stroke:#82c8b4;"/><rect x="818.528" y="611.568" width="70.866" height="53.858" style="fill:none;stroke-width:0.99px;stroke:#82c8b4;"/><rect x="815.882" y="304.291" width="70.866" height="126.426" style="fill:none;stroke-width:0.99px;stroke:#82c8b4;"/><path d="M715.819,441.859l0,219.314" style="fill:none;stroke-width:0.99px;stroke:#82c8b4;"/><rect x="92.197" y="311.094" width="209.008" height="299.055" style="fill:none;stroke-width:0.99px;stroke:#82c8b4;"/><path d="M347.315,661.173l-31.748,12.473l0,-256.252l174.614,0l0,257.385l-40.819,-14.74" style="fill:none;stroke-width:0.99px;stroke:#82c8b4;"/><rect x="896.48" y="160.008" width="24.283" height="20.409" style="fill:none;stroke-width:0.99px;stroke:#82c8b4;"/><rect x="45.992" y="160.008" width="21.165" height="20.409" style="fill:none;stroke-width:0.99px;stroke:#82c8b4;"/><rect x="551.409" y="478.623" width="58.961" height="45.354" style="fill:none;stroke-width:0.99px;stroke:#82c8b4;"/><rect x="818.717" y="475.108" width="56.22" height="45.354" style="fill:none;stroke-width:0.99px;stroke:#82c8b4;"/><rect x="557.74" y="485.142" width="46.299" height="32.315" style="fill:none;stroke-width:0.99px;stroke:#82c8b4;"/><rect x="822.307" y="481.626" width="46.299" height="32.315" style="fill:none;stroke-width:0.99px;stroke:#82c8b4;"/><path d="M577.498,441.221l-22.696,37.461" style="fill:none;stroke-width:0.99px;stroke:#82c8b4;"/><path d="M844.328,442.062l-25.043,32.982" style="fill:none;stroke-width:0.99px;stroke:#82c8b4;"/><path d="M583.355,440.909l22.299,37.418" style="fill:none;stroke-width:0.99px;stroke:#82c8b4;"/><path d="M847.951,442.003l22.316,32.736" style="fill:none;stroke-width:0.99px;stroke:#82c8b4;"/><path d="M579.756,485.731l0,31.616" style="fill:none;stroke-width:0.99px;stroke:#82c8b4;"/><path d="M844.323,481.626l0,32.315" style="fill:none;stroke-width:0.99px;stroke:#82c8b4;"/><rect x="578.071" y="14.323" width="63.181" height="105.701" style="fill:none;stroke-width:0.99px;stroke:#82c8b4;"/><rect x="237.441" y="14.323" width="63.181" height="105.701" style="fill:none;stroke-width:0.99px;stroke:#82c8b4;"/><rect x="672.906" y="14.323" width="63.181" height="105.701" style="fill:none;stroke-width:0.99px;stroke:#82c8b4;"/><rect x="332.276" y="14.323" width="63.181" height="105.701" style="fill:none;stroke-width:0.99px;stroke:#82c8b4;"/><rect x="578.071" y="-101.047" width="63.181" height="105.701" style="fill:none;stroke-width:0.99px;stroke:#82c8b4;"/><rect x="237.441" y="-101.047" width="63.181" height="105.701" style="fill:none;stroke-width:0.99px;stroke:#82c8b4;"/><rect x="672.906" y="-101.047" width="63.181" height="105.701" style="fill:none;stroke-width:0.99px;stroke:#82c8b4;"/><rect x="332.276" y="-101.047" width="63.181" height="105.701" style="fill:none;stroke-width:0.99px;stroke:#82c8b4;"/><rect x="570.795" y="-109.552" width="79.244" height="241.056" style="fill:none;stroke-width:0.99px;stroke:#82c8b4;"/><rect x="230.165" y="-109.552" width="79.244" height="241.056" style="fill:none;stroke-width:0.99px;stroke:#82c8b4;"/><rect x="665.63" y="-109.552" width="79.244" height="241.056" style="fill:none;stroke-width:0.99px;stroke:#82c8b4;"/><rect x="325" y="-109.552" width="79.244" height="241.056" style="fill:none;stroke-width:0.99px;stroke:#82c8b4;"/><path d="M551.126,138.197l222.52,0" style="fill:none;stroke-width:0.99px;stroke:#82c8b4;"/><path d="M210.496,138.197l222.52,0" style="fill:none;stroke-width:0.99px;stroke:#82c8b4;"/><rect x="360.921" y="426.465" width="86.173" height="233.574" style="fill:none;stroke-width:0.99px;stroke:#82c8b4;"/><path d="M354.118,531.913l-5.669,0l0,23.812l6.803,0" style="fill:none;stroke-width:0.99px;stroke:#82c8b4;"/><path d="M275.599,585.204l-30.898,93.544l-4.536,0l30.615,-93.544l4.819,0Z" style="fill:#82c8b4;fill-rule:nonzero;"/><path d="M264.173,586.906l-9.742,34.582l-3.062,0l9.459,-34.582l3.345,0Z" style="fill:#82c8b4;fill-rule:nonzero;"/><path d="M256.765,586.906l-9.742,34.582l-3.062,0l9.459,-34.582l3.345,0Z" style="fill:#82c8b4;fill-rule:nonzero;"/><path d="M257.369,586.906l-9.742,34.582l-3.062,0l9.459,-34.582l3.345,0Z" style="fill:#82c8b4;fill-rule:nonzero;"/><path d="M251.096,586.906l-9.742,34.582l-3.062,0l9.459,-34.582l3.345,0Z" style="fill:#82c8b4;fill-rule:nonzero;"/><path d="M242.633,584.639l-26.845,90.708l-3.401,0l26.561,-90.708l3.685,0Z" style="fill:#82c8b4;fill-rule:nonzero;"/><path d="M274.087,586.396l-0.068,2.268l-34.892,-0.907l0,-1.701l34.96,0.34Z" style="fill:#82c8b4;fill-rule:nonzero;"/><path d="M263.599,630.256c0,0 -13.569,0.189 -18.671,0.189c-5.102,0 -35.83,-0.566 -38.097,-3.288c-0.753,-0.902 -2.902,-6.036 2.721,-6.802c5.398,-0.737 13.198,-0.908 17.008,-0.908c6.803,0 37.039,1.802 38.173,3.224c1.134,1.422 -1.134,7.585 -1.134,7.585" style="fill:#82c8b4;fill-rule:nonzero;"/><path d="M261.52,675.347l4.347,0.34l-27.478,-46.488l-3.326,-0.454l26.457,46.602Z" style="fill:#82c8b4;fill-rule:nonzero;"/><path d="M234.244,672.536l2.57,0l-21.921,-46.488l-3.326,-0.453l22.677,46.941Z" style="fill:#82c8b4;fill-rule:nonzero;"/><path d="M280.715,624.096l4,50.457l22.047,0l4,-50.457l-30.047,0Z" style="fill:#82c8b4;fill-rule:nonzero;"/><path d="M280.668,676.026l1.02,2.722l29.859,0l1.323,-2.722l-32.202,0Z" style="fill:#82c8b4;fill-rule:nonzero;"/><path d="M210.961,591.668l-13.531,7.71l-66.066,-0.68l15.647,-7.257l63.95,0.227Z" style="fill:#82c8b4;fill-rule:nonzero;"/><rect x="147.579" y="614.231" width="50.067" height="2.344" style="fill:#82c8b4;fill-rule:nonzero;"/><path d="M200.585,596.376l-7.408,82.318l-3.25,0l8.164,-82.09l2.494,-0.228Z" style="fill:#82c8b4;fill-rule:nonzero;"/><path d="M150.241,596.376l-7.408,82.318l-3.25,0l8.164,-82.09l2.494,-0.228Z" style="fill:#82c8b4;fill-rule:nonzero;"/><rect x="142.703" y="662.195" width="50.57" height="2.948" style="fill:#82c8b4;fill-rule:nonzero;"/><rect x="222.779" y="643.788" width="32.693" height="2.268" style="fill:#82c8b4;fill-rule:nonzero;"/><path d="M66.968,584.355l26.362,94.96l4.536,0l-26.079,-94.961l-4.819,0Z" style="fill:#82c8b4;fill-rule:nonzero;"/><path d="M80.187,586.906l9.742,34.582l3.062,0l-9.459,-34.582l-3.345,0Z" style="fill:#82c8b4;fill-rule:nonzero;"/><path d="M85.802,586.906l9.742,34.582l3.062,0l-9.459,-34.582l-3.345,0Z" style="fill:#82c8b4;fill-rule:nonzero;"/><path d="M85.831,586.906l9.742,34.582l3.062,0l-9.459,-34.582l-3.345,0Z" style="fill:#82c8b4;fill-rule:nonzero;"/><path d="M91.471,586.906l9.742,34.582l3.062,0l-9.459,-34.582l-3.345,0Z" style="fill:#82c8b4;fill-rule:nonzero;"/><path d="M106.549,584.355l26.845,90.707l3.401,0l-26.561,-90.707l-3.685,0Z" style="fill:#82c8b4;fill-rule:nonzero;"/><path d="M71.032,586.111l0.075,2.268l38.948,-0.907l0,-1.701l-39.024,0.34Z" style="fill:#82c8b4;fill-rule:nonzero;"/><path d="M78.968,630.256c0,0 13.569,0.189 18.671,0.189c5.102,0 35.83,-0.566 38.097,-3.288c0.753,-0.902 2.902,-6.036 -2.721,-6.802c-5.398,-0.737 -13.198,-0.908 -17.008,-0.908c-6.803,0 -37.039,1.802 -38.173,3.224c-1.134,1.422 1.134,7.585 1.134,7.585" style="fill:#82c8b4;fill-rule:nonzero;"/><path d="M79.271,675.687l-2.57,0l21.921,-46.489l3.326,-0.452l-22.677,46.941Z" style="fill:#82c8b4;fill-rule:nonzero;"/><path d="M113.803,669.701l-2.57,0l21.921,-46.488l3.326,-0.453l-22.677,46.941Z" style="fill:#82c8b4;fill-rule:nonzero;"/><rect x="92.197" y="643.598" width="32.693" height="2.268" style="fill:#82c8b4;fill-rule:nonzero;"/><path d="M283.252,528.058l-4.649,-2.494l-1.701,-1.134l-1.7,-4.535l1.133,-2.381l2.76,0.906l-0.378,2.155l3.779,-3.288l3.591,-0.34l1.02,-5.103l-2.343,-2.721l-3.213,-0.34l0.454,-3.742l5.782,0.68l3.856,-1.36l1.7,0.34l2.041,0l0,-3.628l-0.793,-3.175l3.212,-1.247l0.87,3.628l3.628,-3.288l2.154,1.927l1.474,2.835l3.062,-5.102l3.628,0.34l-1.587,4.308l1.02,2.041l3.402,1.247l3.401,-0.679l0.907,-3.403l4.309,0.568l2.948,-0.227l1.247,4.082l-0.794,1.814l-0.907,2.154l-4.648,0.681l1.247,2.835l4.12,0.226l4.157,0.566l-1.02,4.876l-2.949,0.681l2.949,4.195l0,3.175l-3.289,-0.341l-1.474,3.629l-4.989,-0.794l-1.927,-3.174l-1.701,3.514l0.68,2.948l-2.608,1.815l-3.855,-0.794l0.454,4.082l-1.436,2.722l-3.402,0.679l-5.027,-1.247l-2.267,-2.381l-1.588,3.855l-4.989,-0.566l-0.567,-2.949l2.948,-1.927l-1.02,-1.701l-5.783,-0.113l-0.907,4.988l-5.216,-0.794l1.928,-3.967l-3.515,-2.268l-2.268,-2.722l4.649,-0.567Z" style="fill:#82c8b4;fill-rule:nonzero;"/><path d="M302.528,535.599c0,0 -0.567,23.149 -0.567,26.173c0,3.023 0.284,35.339 -0.567,39.591c-0.85,4.252 -2.457,26.078 -2.457,26.078l3.024,0.284c0,0 2.646,-36.851 2.646,-45.638c0,-8.788 0.756,-46.205 0.756,-46.205l-2.835,-0.283Z" style="fill:#82c8b4;fill-rule:nonzero;"/><rect x="707.882" y="536.449" width="8.315" height="35.15" style="fill:#82c8b4;fill-rule:nonzero;"/><rect x="718.37" y="536.449" width="8.315" height="35.15" style="fill:#82c8b4;fill-rule:nonzero;"/><path d="M714.005,590.193l13.531,7.71l66.066,-0.68l-15.647,-7.257l-63.95,0.227Z" style="fill:#82c8b4;fill-rule:nonzero;"/><rect x="729.538" y="612.757" width="47.849" height="0.907" style="fill:#82c8b4;fill-rule:nonzero;"/><path d="M724.381,594.901l7.408,82.318l3.25,0l-8.163,-82.09l-2.495,-0.228Z" style="fill:#82c8b4;fill-rule:nonzero;"/><path d="M774.725,594.901l7.408,82.318l3.25,0l-8.164,-82.09l-2.494,-0.228Z" style="fill:#82c8b4;fill-rule:nonzero;"/><rect x="731.693" y="660.72" width="50.57" height="2.948" style="fill:#82c8b4;fill-rule:nonzero;"/><path d="M502.814,624.096l4,50.457l22.047,0l4,-50.457l-30.047,0Z" style="fill:#82c8b4;fill-rule:nonzero;"/><path d="M502.767,676.026l1.02,2.722l29.859,0l1.323,-2.722l-32.202,0Z" style="fill:#82c8b4;fill-rule:nonzero;"/><path d="M514.937,545.973c0,0 -0.643,36.284 -0.567,41.272c0.076,4.99 0.756,38.098 0.756,38.098l2.948,-0.453c0,0 -0.907,-34.47 -0.68,-37.984c0.226,-3.515 1.134,-41.386 1.134,-41.386l-3.591,0.453Z" style="fill:#82c8b4;fill-rule:nonzero;"/><path d="M492.222,506.062l2.306,2.494l0,2.493l2.456,1.589l1.134,1.701l3.175,-2.836l1.587,-2.947l4.12,2.721l1.55,-2.948l5.253,1.814l1.134,-2.948l2.683,2.267l3.175,-0.453l0.681,2.268l3.401,-0.681l0.68,2.722l0.454,2.154l2.041,-1.701l1.361,-2.948l1.398,1.814l2.003,-3.855l2.268,0.68l0,3.175l-2.495,2.041l2.759,4.309l2.911,-1.134l0.226,3.401l-2.721,0.682l0.227,3.4l1.814,0.682l2.268,-0.682l-1.323,2.042l-2.268,1.701l1.323,3.288l-1.814,1.361l1.361,3.4l-1.588,2.495l-3.817,0.908l-1.701,2.721l-1.512,1.7l-4.535,-0.567l-0.681,-1.134l-1.814,1.587l-2.494,0.908l-5.216,0.454l-3.175,-0.908l-3.628,0.454l-2.721,-2.04l2.948,-1.587l-3.629,-3.176l-2.041,0.341l-2.041,-0.341l-0.453,-3.401l-2.041,-1.361l-2.117,-1.701l1.134,-1.701l-5.102,-0.906l-2.079,-2.721l2.721,0l-0.226,-2.269l2.986,0l3.137,-1.361l0,-3.628l-1.134,-2.495l-5.405,-0.793l-1.398,-6.462l3.401,2.494l-3.137,-6.577l2.23,0Z" style="fill:#82c8b4;fill-rule:nonzero;"/><path d="M643.63,584.752c0,0 17.07,37.601 22.753,46.487c7.105,11.113 32.882,45.582 32.882,45.582l2.948,0c0,0 -21.544,-29.254 -31.37,-43.994c-7.876,-11.813 -24.189,-48.075 -24.189,-48.075l-3.024,0Z" style="fill:#82c8b4;fill-rule:nonzero;"/><path d="M657.531,587.359l14.785,34.582l3.062,0l-14.502,-34.582l-3.345,0Z" style="fill:#82c8b4;fill-rule:nonzero;"/><path d="M650.962,587.927l17.396,34.81l1.55,-0.228l-15.601,-34.582l-3.345,0Z" style="fill:#82c8b4;fill-rule:nonzero;"/><path d="M646.88,586.565l0.907,2.494l13.38,-0.907l-0.907,-2.494l-13.38,0.907Z" style="fill:#82c8b4;fill-rule:nonzero;"/><path d="M663.979,630.937c0,0 13.568,0.188 18.671,0.188c5.102,0 33.547,-0.565 35.815,-3.288c0.752,-0.901 1.616,-6.716 -4.007,-7.482c-5.398,-0.736 -9.63,-0.227 -13.44,-0.227c-6.803,0 -37.039,1.802 -38.173,3.223c-1.134,1.423 1.134,7.586 1.134,7.586" style="fill:#82c8b4;fill-rule:nonzero;"/><path d="M668.342,676.845l-3.842,0l39.445,-48.1l4.536,-0.454l-40.139,48.554Z" style="fill:#82c8b4;fill-rule:nonzero;"/></svg>